<svg xmlns="http://www.w3.org/2000/svg">
    <symbol viewBox="0 0 24 24" id="icon_cpp">
        <path fill="currentcolor" d="M6.078 12A5.928 5.928 0 0 1 12 6.078a5.946 5.946 0 0 1 5.129 2.959l-1.499.867 5.027-2.902a1.579 1.579 0 0 0-.543-.575l-7.345-4.24c-.424-.245-1.116-.245-1.539 0l-7.345 4.24c-.422.244-.768.844-.768 1.333v8.48c0 .245.086.517.226.758l3.529-2.038A5.883 5.883 0 0 1 6.078 12z"></path>
        <path fill="currentcolor" d="M14.564 10.519A2.971 2.971 0 0 0 12 9.039a2.964 2.964 0 0 0-2.564 4.441L12 12l2.564-1.481z"></path>
        <path fill="currentcolor" d="m20.657 7.002-5.046 2.913-1.046.605-.001-.001L12 12l-2.563 1.48A2.964 2.964 0 0 0 12 14.961a2.97 2.97 0 0 0 2.565-1.481l2.563 1.483a5.944 5.944 0 0 1-5.129 2.959 5.926 5.926 0 0 1-5.128-2.962l-3.529 2.038c.14.242.332.453.543.575l7.345 4.24c.423.245 1.115.245 1.539 0l7.345-4.24c.211-.122.403-.333.543-.575.14-.241.226-.513.226-.758V7.76c0-.245-.086-.517-.226-.758zm-2.735 5.327h-.658v.658h-.657v-.658h-.658v-.658h.658v-.658h.657v.658h.658v.658zm2.468 0h-.658v.658h-.658v-.658h-.657v-.658h.657v-.658h.658v.658h.658v.658z"></path>
    </symbol>
    <symbol viewBox="0 0 256 256" id="icon_cpp2">
        <rect width="256" height="256" fill="#394AAB" rx="60"/>
        <path fill="#fff" d="M110.759 210.517C65.125 210.517 28 173.392 28 127.759C28 82.125 65.125 45 110.759 45c29.445 0 56.908 15.846 71.668 41.353l-35.816 20.726c-7.387-12.768-21.126-20.7-35.852-20.7c-22.817 0-41.38 18.563-41.38 41.38c0 22.816 18.563 41.379 41.38 41.379c14.727 0 28.466-7.932 35.854-20.702l35.816 20.725c-14.76 25.51-42.223 41.356-71.67 41.356"/>
        <path fill="#fff" d="M193.517 123.161h-9.196v-9.196h-9.194v9.196h-9.196v9.195h9.196v9.196h9.194v-9.196h9.196zm34.483 0h-9.196v-9.196h-9.194v9.196h-9.196v9.195h9.196v9.196h9.194v-9.196H228z"/>
    </symbol>
    <symbol viewBox="0 0 24 24" id="icon_c">
        <path d="M6.078,12C6.081307,8.730741,8.730741,6.081307,12,6.078c2.114136.004368,4.066957,1.130981,5.129,2.959l-1.499.867l5.027-2.902c-.129292-.234626-.316154-.432499-.543-.575l-7.345-4.24c-.424-.245-1.116-.245-1.539,0L3.885,6.427c-.422.244-.768.844-.768,1.333v8.48c0,.245.086.517.226.758L6.872,14.96c-.521525-.899192-.795488-1.920513-.794-2.96Z" fill="#607b96"/>
        <path d="M14.564,10.519c-.530507-.914347-1.506898-1.477943-2.564-1.48-1.056872.00206-2.032691.566719-2.561126,1.482s-.52953,2.042694-.002874,2.959L12,12l2.564-1.481Z" fill="#607b96"/>
        <path d="M20.657,7.002L15.611,9.915l-1.046.605-.001-.001L12,12L9.437,13.48c.529024.915475,1.505664,1.479815,2.563,1.481c1.05772-.001704,2.034716-.56581,2.565-1.481l2.563,1.483c-1.061745,1.828318-3.014755,2.95504-5.129,2.959-2.115497-.001246-4.069895-1.130132-5.128-2.962L3.342,16.998c.14.242.332.453.543.575l7.345,4.24c.423.245,1.115.245,1.539,0l7.345-4.24c.211-.122.403-.333.543-.575.14-.241.226-.513.226-.758v-8.48c0-.245-.086-.517-.226-.758Z" fill="#607b96"/>
    </symbol>
    <symbol viewBox="0 0 256 256" id="icon_c2">
        <rect width="256" height="256" fill="#394AAB" rx="60"/>
        <path fill="#fff" d="M134.001 33c35.143 0 65.827 19.086 82.261 47.456l-.16-.273l-41.349 23.808c-8.146-13.793-23.081-23.102-40.213-23.293l-.539-.003c-26.126 0-47.306 21.179-47.306 47.304a47.1 47.1 0 0 0 6.239 23.47c8.154 14.235 23.482 23.837 41.067 23.837c17.692 0 33.108-9.724 41.221-24.111l-.197.345l41.286 23.918c-16.254 28.13-46.517 47.157-81.252 47.536l-1.058.006c-35.255 0-66.026-19.204-82.419-47.724C43.579 161.353 39 145.212 39 127.999C39 75.533 81.532 33 134.001 33"/>
    </symbol>
    <symbol viewBox="0 0 20 21" id="icon_angular">
        <path d="M9.81172 0.560547L19.1117 3.88055L17.6937 16.1905L9.81172 20.5605L1.92972 16.1905L0.511719 3.88055L9.81172 0.560547ZM9.81172 2.77055L3.99772 15.8205H6.16572L7.33472 12.9005H12.2687L13.4387 15.8205H15.6057L9.81172 2.77055ZM11.5097 11.1005H8.11372L9.81172 7.01055L11.5097 11.1005Z" fill="currentcolor"/>
    </symbol>
    <symbol viewBox="0 0 21 18" id="icon_css">
        <path d="M3.31109 0L2.66109 3.34H16.2511L15.8111 5.5H2.23109L1.57109 8.83H15.1611L14.4011 12.64L8.92109 14.45L4.17109 12.64L4.50109 11H1.16109L0.371094 15L8.22109 18L17.2711 15L18.4711 8.97L18.7111 7.76L20.2511 0H3.31109Z" fill="currentcolor"/>
    </symbol>
    <symbol viewBox="0 0 256 256" id="icon_css2">
        <path fill="#EBEBEB" d="m53.753 102.651l2.862 31.942h71.481v-31.942zM128.095 38H48l2.904 31.942h77.191zm0 180.841v-33.233l-.14.037l-35.574-9.605l-2.274-25.476H58.042l4.475 50.154l65.431 18.164z"/>
        <path fill="#fff" d="m167.318 134.593l-3.708 41.426l-35.625 9.616v33.231l65.483-18.148l.48-5.397l7.506-84.092l.779-8.578L208 38h-80.015v31.942h45.009l-2.906 32.709h-42.103v31.942z"/>
    </symbol>
    <symbol id="icon_css3" viewBox="0 0 128 128">
        <path fill="#1572B6" d="M18.814 114.123L8.76 1.352h110.48l-10.064 112.754l-45.243 12.543z"/>
        <path fill="#33A9DC" d="m64.001 117.062l36.559-10.136l8.601-96.354h-45.16z"/>
        <path fill="#fff" d="M64.001 51.429h18.302l1.264-14.163H64.001V23.435h34.682l-.332 3.711l-3.4 38.114h-30.95z"/>
        <path fill="#EBEBEB" d="m64.083 87.349l-.061.018l-15.403-4.159l-.985-11.031H33.752l1.937 21.717l28.331 7.863l.063-.018z"/>
        <path fill="#fff" d="m81.127 64.675l-1.666 18.522l-15.426 4.164v14.39l28.354-7.858l.208-2.337l2.406-26.881z"/>
        <path fill="#EBEBEB" d="M64.048 23.435v13.831H30.64l-.277-3.108l-.63-7.012l-.331-3.711zm-.047 27.996v13.831H48.792l-.277-3.108l-.631-7.012l-.33-3.711z"/>
    </symbol>
    <symbol viewBox="0 0 17 21" id="icon_flutter">
        <path d="M10.7207 0.841309L0.720703 10.8413L3.8037 13.9243L16.8837 0.841309H10.7207ZM10.7147 10.0393L5.3397 15.4603L10.7117 20.8403H16.9007L11.5137 15.4403L16.9027 10.0403H10.7147V10.0393Z" fill="currentcolor"/>
    </symbol>
    <symbol viewBox="0 0 21 21" id="icon_gatsby">
        <path d="M10.8115 0.700684C5.31152 0.700684 0.811523 5.20068 0.811523 10.7007C0.811523 16.2007 5.31152 20.7007 10.8115 20.7007C16.3115 20.7007 20.8115 16.2007 20.8115 10.7007C20.8115 5.20068 16.3115 0.700684 10.8115 0.700684ZM5.24052 16.2717C3.74052 14.7717 2.95452 12.7717 2.95452 10.8437L10.7405 18.5577C8.74052 18.4867 6.74052 17.7717 5.24052 16.2717ZM12.5255 18.3437L3.16852 8.98668C3.95452 5.48668 7.09752 2.84368 10.8115 2.84368C13.4545 2.84368 15.7405 4.12968 17.1685 6.05768L16.0975 6.98668C14.8815 5.34368 12.9545 4.27068 10.8115 4.27068C8.02552 4.27068 5.66852 6.05668 4.74052 8.55668L12.9545 16.7707C15.0255 16.0567 16.5975 14.2707 17.0975 12.1287H13.6685V10.7007H18.6685C18.6685 14.4147 16.0255 17.5577 12.5255 18.3437Z" fill="currentcolor"/>
    </symbol>
    <symbol viewBox="0 0 19 21" id="icon_html">
        <path d="M9.81152 16.3181L14.4315 15.0621L15.0545 8.28414H6.83752L6.63352 6.03014H15.2595L15.4865 3.81914H4.13652L4.77252 10.4971H12.5925L12.3315 13.3631L9.81152 14.0301L7.29152 13.3631L7.13352 11.5191H4.86352L5.19252 15.0631L9.81152 16.3181ZM0.811523 0.140137H18.8115L17.1885 18.1401L9.81152 20.1401L2.43452 18.1401L0.811523 0.140137Z" fill="currentcolor"/>
    </symbol>
    <symbol viewBox="0 0 256 256" id="icon_html2">
        <path fill="#fff" d="m48 38l8.61 96.593h110.71l-3.715 41.43l-35.646 9.638l-35.579-9.624l-2.379-26.602H57.94l4.585 51.281l65.427 18.172l65.51-18.172l8.783-98.061H85.824l-2.923-32.71h122.238L208 38z"/>
        <path fill="#EBEBEB" d="M128 38H48l8.61 96.593H128v-31.938H85.824l-2.923-32.71H128zm0 147.647l-.041.014l-35.579-9.624l-2.379-26.602H57.94l4.585 51.281l65.427 18.172l.049-.014z"/>
    </symbol>
    <symbol id="icon_html3" viewBox="0 0 128 128">
        <path fill="#E44D26" d="M19.037 113.876L9.032 1.661h109.936l-10.016 112.198l-45.019 12.48z"/>
        <path fill="#F16529" d="m64 116.8l36.378-10.086l8.559-95.878H64z"/>
        <path fill="#EBEBEB" d="M64 52.455H45.788L44.53 38.361H64V24.599H29.489l.33 3.692l3.382 37.927H64zm0 35.743l-.061.017l-15.327-4.14l-.979-10.975H33.816l1.928 21.609l28.193 7.826l.063-.017z"/>
        <path fill="#fff" d="M63.952 52.455v13.763h16.947l-1.597 17.849l-15.35 4.143v14.319l28.215-7.82l.207-2.325l3.234-36.233l.335-3.696h-3.708zm0-27.856v13.762h33.244l.276-3.092l.628-6.978l.329-3.692z"/>
    </symbol>
    <symbol viewBox="0 0 24 24" id="icon_js">
        <path fill="currentcolor" d="M6 3C4.34315 3 3 4.34315 3 6V18C3 19.6569 4.34315 21 6 21H18C19.6569 21 21 19.6569 21 18V6C21 4.34315 19.6569 3 18 3H6ZM13.3344 16.055C14.0531 16.6343 14.7717 16.9203 15.4904 16.913C15.9304 16.913 16.2677 16.8323 16.5024 16.671C16.7297 16.517 16.8434 16.297 16.8434 16.011C16.8434 15.7177 16.7297 15.4683 16.5024 15.263C16.2677 15.0577 15.8241 14.8523 15.1714 14.647C14.3867 14.4197 13.7817 14.1263 13.3564 13.767C12.9384 13.4077 12.7257 12.9053 12.7184 12.26C12.7184 11.6513 12.9824 11.1417 13.5104 10.731C14.0237 10.3203 14.6801 10.115 15.4794 10.115C16.5941 10.115 17.4887 10.3863 18.1634 10.929L17.3934 12.128C17.1221 11.9153 16.8104 11.7613 16.4584 11.666C16.1064 11.556 15.7911 11.501 15.5124 11.501C15.1311 11.501 14.8267 11.5707 14.5994 11.71C14.3721 11.8493 14.2584 12.0327 14.2584 12.26C14.2584 12.5093 14.3977 12.722 14.6764 12.898C14.9551 13.0667 15.4317 13.2537 16.1064 13.459C16.9204 13.701 17.4997 14.0237 17.8444 14.427C18.1891 14.8303 18.3614 15.3437 18.3614 15.967C18.3614 16.605 18.1157 17.155 17.6244 17.617C17.1404 18.0717 16.4364 18.31 15.5124 18.332C14.3024 18.332 13.2904 17.969 12.4764 17.243L13.3344 16.055ZM7.80405 16.693C8.03872 16.8397 8.32105 16.913 8.65105 16.913C8.99572 16.913 9.28172 16.814 9.50905 16.616C9.73639 16.4107 9.85005 16.055 9.85005 15.549V10.247H11.3351V15.835C11.3131 16.7003 11.0637 17.3237 10.5871 17.705C10.3157 17.9323 10.0187 18.0937 9.69605 18.189C9.37339 18.2843 9.06172 18.332 8.76105 18.332C8.21105 18.332 7.72339 18.2367 7.29805 18.046C6.84339 17.8407 6.46205 17.4777 6.15405 16.957L7.18805 16.11C7.37872 16.3667 7.58405 16.561 7.80405 16.693Z"></path>
    </symbol>
    <symbol viewBox="0 0 128 128" id="icon_js2">
        <path fill="currentcolor" d="M116.347 96.736c-.917-5.711-4.641-10.508-15.672-14.981c-3.832-1.761-8.104-3.022-9.377-5.926c-.452-1.69-.512-2.642-.226-3.665c.821-3.32 4.784-4.355 7.925-3.403c2.023.678 3.938 2.237 5.093 4.724c5.402-3.498 5.391-3.475 9.163-5.879c-1.381-2.141-2.118-3.129-3.022-4.045c-3.249-3.629-7.676-5.498-14.756-5.355l-3.688.477c-3.534.893-6.902 2.748-8.877 5.235c-5.926 6.724-4.236 18.492 2.975 23.335c7.104 5.332 17.54 6.545 18.873 11.531c1.297 6.104-4.486 8.08-10.234 7.378c-4.236-.881-6.592-3.034-9.139-6.949c-4.688 2.713-4.688 2.713-9.508 5.485c1.143 2.499 2.344 3.63 4.26 5.795c9.068 9.198 31.76 8.746 35.83-5.176c.165-.478 1.261-3.666.38-8.581M69.462 58.943H57.753l-.048 30.272c0 6.438.333 12.34-.714 14.149c-1.713 3.558-6.152 3.117-8.175 2.427c-2.059-1.012-3.106-2.451-4.319-4.485c-.333-.584-.583-1.036-.667-1.071l-9.52 5.83c1.583 3.249 3.915 6.069 6.902 7.901c4.462 2.678 10.459 3.499 16.731 2.059c4.082-1.189 7.604-3.652 9.448-7.401c2.666-4.915 2.094-10.864 2.07-17.444c.06-10.735.001-21.468.001-32.237"/>
    </symbol>
    <symbol id="icon_js3" viewBox="0 0 128 128">
        <path fill="#F0DB4F" d="M1.408 1.408h125.184v125.185H1.408z"/>
        <path fill="#323330" d="M116.347 96.736c-.917-5.711-4.641-10.508-15.672-14.981c-3.832-1.761-8.104-3.022-9.377-5.926c-.452-1.69-.512-2.642-.226-3.665c.821-3.32 4.784-4.355 7.925-3.403c2.023.678 3.938 2.237 5.093 4.724c5.402-3.498 5.391-3.475 9.163-5.879c-1.381-2.141-2.118-3.129-3.022-4.045c-3.249-3.629-7.676-5.498-14.756-5.355l-3.688.477c-3.534.893-6.902 2.748-8.877 5.235c-5.926 6.724-4.236 18.492 2.975 23.335c7.104 5.332 17.54 6.545 18.873 11.531c1.297 6.104-4.486 8.08-10.234 7.378c-4.236-.881-6.592-3.034-9.139-6.949c-4.688 2.713-4.688 2.713-9.508 5.485c1.143 2.499 2.344 3.63 4.26 5.795c9.068 9.198 31.76 8.746 35.83-5.176c.165-.478 1.261-3.666.38-8.581M69.462 58.943H57.753l-.048 30.272c0 6.438.333 12.34-.714 14.149c-1.713 3.558-6.152 3.117-8.175 2.427c-2.059-1.012-3.106-2.451-4.319-4.485c-.333-.584-.583-1.036-.667-1.071l-9.52 5.83c1.583 3.249 3.915 6.069 6.902 7.901c4.462 2.678 10.459 3.499 16.731 2.059c4.082-1.189 7.604-3.652 9.448-7.401c2.666-4.915 2.094-10.864 2.07-17.444c.06-10.735.001-21.468.001-32.237"/>
    </symbol>
    <symbol viewBox="0 0 22 20" id="icon_react">
        <path d="M11.3115 11.5C10.9137 11.5 10.5322 11.342 10.2509 11.0607C9.96956 10.7793 9.81152 10.3978 9.81152 9.99999C9.81152 9.60217 9.96956 9.22064 10.2509 8.93933C10.5322 8.65803 10.9137 8.49999 11.3115 8.49999C11.7093 8.49999 12.0909 8.65803 12.3722 8.93933C12.6535 9.22064 12.8115 9.60217 12.8115 9.99999C12.8115 10.3978 12.6535 10.7793 12.3722 11.0607C12.0909 11.342 11.7093 11.5 11.3115 11.5ZM10.7835 14.494C10.9585 14.704 11.1345 14.908 11.3115 15.103C11.4885 14.908 11.6645 14.705 11.8395 14.494C11.4876 14.5015 11.1355 14.5015 10.7835 14.494ZM8.78852 14.369C8.02058 14.2891 7.25772 14.1662 6.50352 14.001C6.42852 14.351 6.37152 14.691 6.33352 15.017C6.14352 16.6 6.40852 17.562 6.81152 17.794C7.21452 18.027 8.17952 17.775 9.45652 16.82C9.71952 16.623 9.98452 16.404 10.2505 16.165C9.73002 15.5941 9.24192 14.9945 8.78852 14.369ZM16.1195 14.001C15.4025 14.161 14.6365 14.285 13.8345 14.369C13.3811 14.9945 12.893 15.5941 12.3725 16.165C12.6385 16.405 12.9035 16.623 13.1665 16.82C14.4435 17.775 15.4085 18.027 15.8115 17.794C16.2145 17.562 16.4785 16.6 16.2905 15.017C16.2492 14.6759 16.1925 14.3369 16.1205 14.001H16.1195ZM17.5695 13.614C18.1465 16.253 17.8435 18.354 16.5615 19.094C15.2795 19.834 13.3085 19.046 11.3115 17.227C9.31452 19.046 7.34352 19.833 6.06152 19.093C4.77952 18.353 4.47652 16.253 5.05252 13.613C2.47852 12.794 0.811523 11.48 0.811523 9.99999C0.811523 8.51999 2.47852 7.20699 5.05252 6.38599C4.47652 3.74699 4.77952 1.64599 6.06152 0.905992C7.34352 0.165992 9.31452 0.953992 11.3115 2.77299C13.3085 0.953992 15.2795 0.166992 16.5615 0.906992C17.8435 1.64699 18.1465 3.74699 17.5705 6.38699C20.1445 7.20599 21.8115 8.51999 21.8115 9.99999C21.8115 11.48 20.1445 12.793 17.5705 13.614H17.5695ZM10.2495 3.83499C9.99521 3.6048 9.73061 3.38624 9.45652 3.17999C8.17952 2.22499 7.21452 1.97299 6.81152 2.20599C6.40852 2.43799 6.14452 3.39999 6.33252 4.98299C6.37252 5.30999 6.42852 5.64899 6.50252 5.99899C7.25705 5.83373 8.02025 5.71087 8.78852 5.63099C9.26352 4.97799 9.75352 4.37699 10.2505 3.83499H10.2495ZM13.8345 5.63099C14.6365 5.71499 15.4025 5.83999 16.1195 5.99899C16.1945 5.64899 16.2515 5.30899 16.2895 4.98299C16.4795 3.39999 16.2145 2.43799 15.8115 2.20599C15.4085 1.97299 14.4435 2.22499 13.1665 3.17999C12.8921 3.38622 12.6272 3.60477 12.3725 3.83499C12.8695 4.37699 13.3595 4.97799 13.8345 5.63099ZM11.8395 5.50599C11.6645 5.29599 11.4885 5.09199 11.3115 4.89699C11.1345 5.09199 10.9585 5.29499 10.7835 5.50599C11.1355 5.49852 11.4876 5.49852 11.8395 5.50599ZM7.68352 12.704C7.50108 12.4031 7.32504 12.0984 7.15552 11.79C7.06052 12.047 6.97252 12.3 6.89252 12.551C7.14952 12.607 7.41352 12.658 7.68252 12.704H7.68352ZM9.61552 12.938C10.7446 13.0219 11.8784 13.0219 13.0075 12.938C13.6447 12.0019 14.2116 11.0199 14.7035 9.99999C14.2116 8.98007 13.6447 7.99804 13.0075 7.06199C11.8784 6.97813 10.7446 6.97813 9.61552 7.06199C8.97832 7.99804 8.41143 8.98007 7.91952 9.99999C8.41143 11.0199 8.97832 12.0019 9.61552 12.938ZM15.4675 8.20999C15.5625 7.95299 15.6505 7.69999 15.7305 7.44899C15.4684 7.3921 15.205 7.34109 14.9405 7.29599C15.1226 7.5969 15.2983 7.90164 15.4675 8.20999ZM5.44152 7.83699C5.10152 7.94699 4.77952 8.06699 4.47752 8.19699C3.01252 8.82499 2.31152 9.53499 2.31152 9.99999C2.31152 10.465 3.01152 11.175 4.47752 11.803C4.77952 11.933 5.10152 12.053 5.44152 12.163C5.66352 11.463 5.93852 10.737 6.26652 9.99999C5.95135 9.29496 5.67592 8.57283 5.44152 7.83699ZM6.89152 7.44899C6.97252 7.69899 7.06052 7.95299 7.15552 8.20899C7.32505 7.90096 7.50109 7.59656 7.68352 7.29599C7.41352 7.34199 7.14952 7.39299 6.89252 7.44899H6.89152ZM17.1815 12.163C17.5215 12.053 17.8435 11.933 18.1455 11.803C19.6105 11.175 20.3115 10.465 20.3115 9.99999C20.3115 9.53499 19.6115 8.82499 18.1455 8.19699C17.8298 8.06249 17.5081 7.94237 17.1815 7.83699C16.9595 8.53699 16.6845 9.26299 16.3565 9.99999C16.6845 10.737 16.9595 11.462 17.1815 12.163ZM15.7315 12.551C15.6505 12.301 15.5625 12.047 15.4675 11.791C15.298 12.099 15.122 12.4034 14.9395 12.704C15.2095 12.658 15.4735 12.607 15.7305 12.551H15.7315Z" fill="currentcolor"/>
    </symbol>
    <symbol viewBox="0 0 24 24" id="icon_sass">
        <path d="M12 0C18.6 0 24 5.4 24 12C24 18.6 18.6 24 12 24C5.4 24 0 18.6 0 12C0 5.4 5.4 0 12 0ZM9.6 15.975C9.75 16.65 9.75 17.25 9.6 17.775L9.525 18C9.525 18.075 9.45 18.15 9.45 18.15C9.3 18.45 9.15 18.675 8.925 18.975C8.25 19.725 7.275 20.025 6.825 19.8C6.375 19.575 6.6 18.45 7.425 17.625C8.325 16.725 9.525 16.125 9.525 16.125L9.6 15.975ZM19.5 5.1C18.975 3 15.45 2.25 12.075 3.45C10.125 4.2 7.95 5.325 6.375 6.75C4.5 8.475 4.275 9.975 4.35 10.575C4.8 12.75 7.8 14.25 9.075 15.3C8.7 15.45 6 16.8 5.4 18.225C4.725 19.725 5.475 20.775 6 20.85C7.575 21.3 9.225 20.475 10.05 19.2C10.875 17.925 10.8 16.35 10.425 15.525C10.95 15.375 11.475 15.3 12.225 15.45C14.325 15.675 14.775 17.025 14.625 17.55C14.475 18.075 14.1 18.375 13.95 18.525C13.8 18.6 13.725 18.675 13.8 18.675C13.8 18.75 13.875 18.75 14.025 18.75C14.175 18.75 15.15 18.3 15.15 17.25C15.225 15.975 13.95 14.55 11.775 14.55C10.875 14.55 10.275 14.625 9.9 14.775C9.9 14.7 9.825 14.7 9.825 14.7C8.475 13.275 6 12.225 6.075 10.275C6.075 9.6 6.375 7.725 10.875 5.475C14.55 3.6 17.55 4.125 18.075 5.25C18.825 6.825 16.5 9.825 12.675 10.275C11.175 10.425 10.425 9.9 10.275 9.675C10.05 9.45 10.05 9.45 9.975 9.45C9.825 9.525 9.9 9.675 9.975 9.825C10.125 10.125 10.575 10.65 11.4 10.95C12.075 11.175 13.8 11.325 15.9 10.5C18.225 9.6 20.025 7.125 19.5 5.025V5.1Z" fill="currentcolor"></path>
    </symbol>
    <symbol id="icon_sass2" viewBox="0 0 256 256">
        <g fill="none">
            <rect width="256" height="256" fill="#CD6799" rx="60"/>
            <g clip-path="url(#IconifyId19be701fead3d37ea9)">
                <path fill="#fff" d="M200.107 139.163c-6.974.036-13.034 1.716-18.109 4.198c-1.862-3.687-3.724-6.973-4.053-9.383c-.365-2.811-.803-4.527-.365-7.886s2.41-8.141 2.373-8.506s-.438-2.081-4.454-2.118s-7.484.767-7.886 1.826c-.402 1.058-1.168 3.468-1.679 5.951c-.694 3.651-8.033 16.685-12.231 23.512c-1.351-2.665-2.519-5.002-2.775-6.864c-.365-2.811-.803-4.527-.365-7.886s2.41-8.142 2.373-8.507s-.438-2.081-4.454-2.117s-7.485.766-7.886 1.825c-.402 1.059-.84 3.542-1.68 5.951c-.839 2.41-10.587 24.17-13.143 29.792a168 168 0 0 1-3.249 6.754s-.037.11-.146.292a91 91 0 0 1-1.096 2.081v.037c-.547.986-1.132 1.898-1.424 1.898c-.219 0-.62-2.628.073-6.206c1.461-7.558 4.929-19.314 4.893-19.715c0-.219.657-2.264-2.264-3.323c-2.848-1.059-3.87.694-4.126.694c-.255 0-.438.621-.438.621s3.177-13.217-6.06-13.217c-5.769 0-13.728 6.316-17.67 12.012a5003 5003 0 0 0-13.437 7.338c-2.153 1.205-4.38 2.41-6.462 3.542c-.146-.146-.292-.329-.438-.475c-11.172-11.939-31.836-20.372-30.96-36.4c.329-5.842 2.337-21.176 39.686-39.796c30.741-15.151 55.203-10.953 59.438-1.643c6.06 13.29-13.107 37.97-44.87 41.548c-12.122 1.351-18.474-3.322-20.08-5.074c-1.68-1.826-1.936-1.935-2.557-1.57c-1.022.547-.365 2.19 0 3.139c.95 2.483 4.856 6.864 11.464 9.018c5.842 1.899 20.044 2.958 37.24-3.687c19.241-7.448 34.283-28.15 29.865-45.491c-4.417-17.598-33.625-23.403-61.263-13.582c-16.43 5.842-34.246 15.042-47.061 27.017c-15.225 14.24-17.634 26.616-16.648 31.8c3.541 18.401 28.915 30.376 39.065 39.248c-.511.292-.986.548-1.387.767c-5.075 2.519-24.425 12.632-29.245 23.33c-5.476 12.121.877 20.81 5.075 21.978c13.034 3.615 26.433-2.884 33.626-13.618s6.316-24.68 2.993-31.069a.8.8 0 0 0-.146-.219c1.315-.767 2.665-1.57 3.98-2.337a196 196 0 0 1 7.338-4.126c-1.241 3.396-2.154 7.448-2.592 13.29c-.547 6.864 2.264 15.772 5.951 19.277c1.643 1.533 3.578 1.57 4.82 1.57c4.308 0 6.243-3.578 8.397-7.813c2.628-5.185 5.002-11.209 5.002-11.209s-2.958 16.284 5.074 16.284c2.921 0 5.878-3.797 7.193-5.732v.036s.073-.109.219-.365c.292-.475.474-.767.474-.767v-.073c1.169-2.044 3.797-6.681 7.704-14.385c5.038-9.93 9.894-22.343 9.894-22.343s.438 3.03 1.935 8.068c.876 2.958 2.702 6.207 4.162 9.347c-1.168 1.643-1.898 2.555-1.898 2.555l.036.037c-.949 1.241-1.971 2.592-3.103 3.906c-3.98 4.747-8.726 10.187-9.383 11.757c-.767 1.862-.584 3.212.876 4.308c1.059.803 2.957.912 4.892.803c3.578-.256 6.098-1.132 7.339-1.68c1.935-.693 4.199-1.752 6.316-3.322c3.907-2.884 6.28-7.01 6.061-12.45c-.11-2.994-1.096-5.987-2.3-8.799c.365-.511.693-1.022 1.058-1.533c6.171-9.018 10.953-18.912 10.953-18.912s.438 3.03 1.935 8.069c.73 2.555 2.227 5.33 3.542 8.032c-5.805 4.71-9.383 10.186-10.661 13.764c-2.3 6.645-.511 9.638 2.884 10.332c1.534.329 3.724-.401 5.331-1.095c2.044-.657 4.454-1.789 6.754-3.469c3.906-2.884 7.667-6.9 7.448-12.34c-.11-2.482-.767-4.929-1.68-7.302c4.929-2.044 11.282-3.176 19.387-2.227c17.379 2.045 20.811 12.888 20.153 17.452c-.657 4.563-4.308 7.046-5.513 7.813c-1.204.767-1.606 1.022-1.496 1.57c.146.803.73.766 1.752.62c1.424-.255 9.127-3.687 9.456-12.084c.548-10.734-9.675-22.454-27.747-22.344M66.043 184.362c-5.768 6.279-13.8 8.653-17.269 6.645c-3.724-2.155-2.264-11.428 4.82-18.073c4.307-4.052 9.857-7.813 13.544-10.113c.84-.511 2.081-1.241 3.578-2.154c.256-.146.402-.219.402-.219l.876-.548c2.592 9.493.11 17.854-5.95 24.462m41.986-28.551c-2.008 4.893-6.206 17.415-8.762 16.722c-2.19-.585-3.541-10.077-.438-19.46c1.57-4.71 4.892-10.332 6.827-12.523c3.14-3.505 6.608-4.673 7.448-3.249c1.059 1.862-3.833 15.443-5.075 18.51m34.648 16.576c-.84.438-1.643.73-2.008.511c-.256-.146.365-.73.365-.73s4.345-4.674 6.061-6.791c.985-1.242 2.154-2.702 3.395-4.345v.475c0 5.586-5.403 9.346-7.813 10.88m26.725-6.098c-.621-.438-.511-1.898 1.57-6.462c.803-1.789 2.702-4.782 5.951-7.667c.365 1.169.621 2.3.584 3.359c-.036 7.047-5.075 9.675-8.105 10.77"/>
            </g>
            <defs>
                <clipPath id="IconifyId19be701fead3d37ea9">
                    <path fill="#fff" d="M28 53h200v149.909H28z"/>
                </clipPath>
            </defs>
        </g>
    </symbol>
    <symbol viewBox="0 0 16 16" id="icon_sass2">
        <path fill="none" stroke="white" stroke-linecap="round" stroke-linejoin="round" d="M6.75 6.38c1.85 1.07 3.35.74 4.83-.2c1.5-.95 2.7-2.78 1.3-4.15c-.7-.68-3.25-.8-5.62.19c-2.36.99-4.59 3.02-4.74 4.11c-.31 2.19 3.15 2.88 3.64 4.23s.28 1.98-.2 2.83c-.5.85-1.96 1.62-2.8.68c-.83-.95 1.67-2.75 2.98-3.25c1.3-.5 3.1-.4 3.69.25c.58.64-.07 1.79-.03 1.79"/>
    </symbol>
    <symbol viewBox="0 0 24 24" id="icon_tailwind">
        <path fill="currentcolor" d="M11.9996 4.85999C8.82628 4.85999 6.84294 6.44665 6.04961 9.61999C7.23961 8.03332 8.62794 7.43832 10.2146 7.83499C11.12 8.06109 11.7666 8.71757 12.4835 9.44545C13.6507 10.6295 15.0004 12 17.9496 12C21.1229 12 23.1063 10.4133 23.8996 7.23998C22.7096 8.82665 21.3213 9.42165 19.7346 9.02499C18.8292 8.79889 18.1827 8.1424 17.4657 7.41452C16.2995 6.23047 14.9498 4.85999 11.9996 4.85999ZM6.04961 12C2.87628 12 0.892943 13.5867 0.0996094 16.76C1.28961 15.1733 2.67794 14.5783 4.26461 14.975C5.17 15.2011 5.81657 15.8576 6.53354 16.5855C7.70073 17.7695 9.05039 19.14 11.9996 19.14C15.1729 19.14 17.1563 17.5533 17.9496 14.38C16.7596 15.9667 15.3713 16.5617 13.7846 16.165C12.8792 15.9389 12.2326 15.2824 11.5157 14.5545C10.3495 13.3705 8.99982 12 6.04961 12Z"></path>
    </symbol>
    <symbol id="icon_tailwind2" viewBox="0 0 128 128">
        <path fill="#38bdf8" d="M64.004 25.602c-17.067 0-27.73 8.53-32 25.597c6.398-8.531 13.867-11.73 22.398-9.597c4.871 1.214 8.352 4.746 12.207 8.66C72.883 56.629 80.145 64 96.004 64c17.066 0 27.73-8.531 32-25.602q-9.6 12.803-22.399 9.602c-4.87-1.215-8.347-4.746-12.207-8.66c-6.27-6.367-13.53-13.738-29.394-13.738M32.004 64c-17.066 0-27.73 8.531-32 25.602Q9.603 76.799 22.402 80c4.871 1.215 8.352 4.746 12.207 8.66c6.274 6.367 13.536 13.738 29.395 13.738c17.066 0 27.73-8.53 32-25.597q-9.6 12.797-22.399 9.597c-4.87-1.214-8.347-4.746-12.207-8.66C55.128 71.371 47.868 64 32.004 64m0 0"/>
    </symbol>
    <symbol id="icon_bulma" viewBox="0 0 256 373">
        <path fill="#00D1B2" d="M0 256L23.273 93.091L116.364 0l116.363 116.364l-69.818 69.818L256 279.273l-139.636 93.091z"/>
    </symbol>
    <symbol viewBox="0 0 23 20" id="icon_vue">
        <path d="M0.811523 0.92041H4.81152L11.8115 12.9204L18.8115 0.92041H22.8115L11.8115 19.9204L0.811523 0.92041ZM9.47852 0.92041L11.8115 4.92041L14.1445 0.92041H18.1795L11.8115 11.9204L5.44352 0.92041H9.47852Z" fill="currentcolor"/>
    </symbol>
    <symbol id="icon_php" viewBox="0 0 256 135">
        <defs>
            <radialGradient id="IconifyId19be701fead3d37ea3" cx=".837" cy="-125.811" r="363.057" gradientTransform="translate(76.464 81.918)scale(.463)" gradientUnits="userSpaceOnUse">
                <stop offset="0" stop-color="#FFF"/>
                <stop offset=".5" stop-color="#4C6B97"/>
                <stop offset="1" stop-color="#231F20"/>
            </radialGradient>
        </defs>
        <ellipse cx="128" cy="67.3" fill="url(#IconifyId19be701fead3d37ea3)" rx="128" ry="67.3"/>
        <ellipse cx="128" cy="67.3" fill="#6181B6" rx="123" ry="62.3"/>
        <path fill="#FFF" d="m152.9 87.5l6.1-31.4c1.4-7.1.2-12.4-3.4-15.7c-3.5-3.2-9.5-4.8-18.3-4.8h-10.6l3-15.6c.1-.6 0-1.2-.4-1.7s-.9-.7-1.5-.7h-14.6c-1 0-1.8.7-2 1.6l-6.5 33.3c-.6-3.8-2-7-4.4-9.6c-4.3-4.9-11-7.4-20.1-7.4H52.1c-1 0-1.8.7-2 1.6L37 104.7c-.1.6 0 1.2.4 1.7s.9.7 1.5.7h14.7c1 0 1.8-.7 2-1.6l3.2-16.3h10.9c5.7 0 10.6-.6 14.3-1.8q5.85-1.95 10.5-6.3c2.5-2.3 4.6-4.9 6.2-7.7l-2.6 13.5c-.1.6 0 1.2.4 1.7s.9.7 1.5.7h14.6c1 0 1.8-.7 2-1.6l7.2-37h10c4.3 0 5.5.8 5.9 1.2c.3.3.9 1.5.2 5.2L134.1 87c-.1.6 0 1.2.4 1.7s.9.7 1.5.7h15c.9-.3 1.7-1 1.9-1.9m-67.6-26c-.9 4.7-2.6 8.1-5.1 10s-6.6 2.9-12 2.9h-6.5l4.7-24.2h8.4c6.2 0 8.7 1.3 9.7 2.4c1.3 1.6 1.6 4.7.8 8.9m130-18.6c-4.3-4.9-11-7.4-20.1-7.4h-28.3c-1 0-1.8.7-2 1.6l-13.1 67.5c-.1.6 0 1.2.4 1.7s.9.7 1.5.7h14.7c1 0 1.8-.7 2-1.6l3.2-16.3h10.9c5.7 0 10.6-.6 14.3-1.8q5.85-1.95 10.5-6.3c2.6-2.4 4.8-5.1 6.4-8s2.8-6.1 3.5-9.6c1.7-8.7.4-15.5-3.9-20.5M200 61.5c-.9 4.7-2.6 8.1-5.1 10s-6.6 2.9-12 2.9h-6.5l4.7-24.2h8.4c6.2 0 8.7 1.3 9.7 2.4c1.4 1.6 1.7 4.7.8 8.9"/>
        <path fill="#000004" d="M74.8 48.2c5.6 0 9.3 1 11.2 3.1s2.3 5.6 1.3 10.6c-1 5.2-3 9-5.9 11.2q-4.35 3.3-13.2 3.3h-8.9l5.5-28.2zM39 105h14.7l3.5-17.9h12.6c5.6 0 10.1-.6 13.7-1.8s6.8-3.1 9.8-5.9q3.75-3.45 6-7.5c1.5-2.7 2.6-5.7 3.2-9c1.6-8 .4-14.2-3.5-18.7s-10.1-6.7-18.6-6.7H52.1zm74.3-85.4h14.6l-3.5 17.9h13c8.2 0 13.8 1.4 16.9 4.3s4 7.5 2.8 13.9L151 87.1h-14.8l5.8-29.9c.7-3.4.4-5.7-.7-6.9s-3.6-1.9-7.3-1.9h-11.7l-7.5 38.7h-14.6zm76.2 28.6c5.6 0 9.3 1 11.2 3.1s2.3 5.6 1.3 10.6c-1 5.2-3 9-5.9 11.2q-4.35 3.3-13.2 3.3H174l5.5-28.2zM153.7 105h14.7l3.5-17.9h12.6c5.6 0 10.1-.6 13.7-1.8s6.8-3.1 9.8-5.9q3.75-3.45 6-7.5c1.5-2.7 2.6-5.7 3.2-9c1.6-8 .4-14.2-3.5-18.7s-10.1-6.7-18.6-6.7h-28.3z"/>
    </symbol>
    <symbol id="icon_python" viewBox="0 0 256 255">
        <defs>
            <linearGradient id="IconifyId19be701fead3d37ea6" x1="12.959%" x2="79.639%" y1="12.039%" y2="78.201%">
                <stop offset="0%" stop-color="#387EB8"/>
                <stop offset="100%" stop-color="#366994"/>
            </linearGradient>
            <linearGradient id="IconifyId19be701fead3d37ea7" x1="19.128%" x2="90.742%" y1="20.579%" y2="88.429%">
                <stop offset="0%" stop-color="#FFE052"/>
                <stop offset="100%" stop-color="#FFC331"/>
            </linearGradient>
        </defs>
        <path fill="url(#IconifyId19be701fead3d37ea6)" d="M126.916.072c-64.832 0-60.784 28.115-60.784 28.115l.072 29.128h61.868v8.745H41.631S.145 61.355.145 126.77c0 65.417 36.21 63.097 36.21 63.097h21.61v-30.356s-1.165-36.21 35.632-36.21h61.362s34.475.557 34.475-33.319V33.97S194.67.072 126.916.072M92.802 19.66a11.12 11.12 0 0 1 11.13 11.13a11.12 11.12 0 0 1-11.13 11.13a11.12 11.12 0 0 1-11.13-11.13a11.12 11.12 0 0 1 11.13-11.13"/>
        <path fill="url(#IconifyId19be701fead3d37ea7)" d="M128.757 254.126c64.832 0 60.784-28.115 60.784-28.115l-.072-29.127H127.6v-8.745h86.441s41.486 4.705 41.486-60.712c0-65.416-36.21-63.096-36.21-63.096h-21.61v30.355s1.165 36.21-35.632 36.21h-61.362s-34.475-.557-34.475 33.32v56.013s-5.235 33.897 62.518 33.897m34.114-19.586a11.12 11.12 0 0 1-11.13-11.13a11.12 11.12 0 0 1 11.13-11.131a11.12 11.12 0 0 1 11.13 11.13a11.12 11.12 0 0 1-11.13 11.13"/>
    </symbol>
    <symbol id="icon_wordpress" viewBox="0 0 256 256">
        <g fill="none">
            <rect width="256" height="256" fill="#0073AA" rx="60"/>
            <path fill="#fff" d="M42.214 127.994c0 33.955 19.733 63.299 48.347 77.205L49.641 93.083a85.5 85.5 0 0 0-7.427 34.911m143.694-4.329c0-10.601-3.808-17.943-7.074-23.658c-4.349-7.066-8.425-13.05-8.425-20.116c0-7.886 5.981-15.226 14.405-15.226c.381 0 .741.047 1.112.068c-15.262-13.982-35.595-22.519-57.929-22.519c-29.968 0-56.335 15.376-71.673 38.666c2.012.06 3.909.103 5.52.103c8.973 0 22.862-1.09 22.862-1.09c4.624-.272 5.17 6.52.55 7.067c0 0-4.647.547-9.818.818l31.238 92.918l18.773-56.303l-13.365-36.618c-4.619-.271-8.995-.818-8.995-.818c-4.623-.271-4.081-7.339.542-7.066c0 0 14.166 1.088 22.595 1.088c8.972 0 22.862-1.088 22.862-1.088c4.628-.273 5.171 6.519.55 7.066c0 0-4.657.547-9.818.818l31.001 92.214l8.556-28.592c3.709-11.866 6.531-20.388 6.531-27.732"/>
            <path fill="#fff" d="m129.503 135.498l-25.738 74.79a85.8 85.8 0 0 0 24.233 3.495a85.7 85.7 0 0 0 28.486-4.863a7.5 7.5 0 0 1-.61-1.182zm73.766-48.66a66 66 0 0 1 .578 8.82c0 8.705-1.626 18.491-6.523 30.727l-26.203 75.759c25.503-14.872 42.657-42.501 42.657-74.148c.001-14.915-3.808-28.94-10.509-41.158"/>
            <path fill="#fff" d="M127.998 28C72.86 28 28 72.857 28 127.994c0 55.144 44.86 99.999 99.998 99.999c55.135 0 100.002-44.855 100.002-99.999C227.998 72.857 183.133 28 127.998 28m0 195.41c-52.61 0-95.413-42.804-95.413-95.416c0-52.609 42.802-95.409 95.413-95.409c52.607 0 95.407 42.8 95.407 95.409c0 52.612-42.8 95.416-95.407 95.416"/>
        </g>
    </symbol>
    <symbol id="icon_bootstrap" viewBox="0 0 128 128">
        <defs>
            <linearGradient id="IconifyId19be701fead3d37ea13" x1="76.079" x2="523.48" y1="10.798" y2="365.95" gradientTransform="translate(1.11 14.613)scale(.24566)" gradientUnits="userSpaceOnUse">
                <stop offset="0" stop-color="#9013fe"/>
                <stop offset="1" stop-color="#6610f2"/>
            </linearGradient>
            <linearGradient id="IconifyId19be701fead3d37ea14" x1="193.51" x2="293.51" y1="109.74" y2="278.87" gradientTransform="translate(0 52)" gradientUnits="userSpaceOnUse">
                <stop offset="0" stop-color="#fff"/>
                <stop offset="1" stop-color="#f1e5fc"/>
            </linearGradient>
            <filter id="IconifyId19be701fead3d37ea15" width="197" height="249" x="161.9" y="135.46" color-interpolation-filters="sRGB" filterUnits="userSpaceOnUse">
                <feFlood flood-opacity="0" result="BackgroundImageFix"/>
                <feColorMatrix in="SourceAlpha" values="0 0 0 0 0 0 0 0 0 0 0 0 0 0 0 0 0 0 127 0"/>
                <feOffset dy="4"/>
                <feGaussianBlur stdDeviation="8"/>
                <feColorMatrix values="0 0 0 0 0 0 0 0 0 0 0 0 0 0 0 0 0 0 0.15 0"/>
                <feBlend in2="BackgroundImageFix" result="effect1_dropShadow"/>
                <feBlend in="SourceGraphic" in2="effect1_dropShadow" result="shape"/>
            </filter>
        </defs>
        <path fill="url(#IconifyId19be701fead3d37ea13)" d="M14.985 27.712c-.237-6.815 5.072-13.099 12.249-13.099h73.54c7.177 0 12.486 6.284 12.249 13.099c-.228 6.546.068 15.026 2.202 21.94c2.141 6.936 5.751 11.319 11.664 11.883v6.387c-5.913.564-9.523 4.947-11.664 11.883c-2.134 6.914-2.43 15.394-2.202 21.94c.237 6.815-5.072 13.098-12.249 13.098h-73.54c-7.177 0-12.486-6.284-12.249-13.098c.228-6.546-.068-15.026-2.203-21.94c-2.14-6.935-5.76-11.319-11.673-11.883v-6.387c5.913-.563 9.533-4.947 11.673-11.883c2.135-6.914 2.43-15.394 2.203-21.94"/>
        <path fill="url(#IconifyId19be701fead3d37ea14)" d="M267.1 364.46c47.297 0 75.798-23.158 75.798-61.355c0-28.873-20.336-49.776-50.532-53.085v-1.203c22.185-3.609 39.594-24.211 39.594-47.219c0-32.783-25.882-54.138-65.322-54.138h-88.74v217zm-54.692-189.48h45.911c24.958 0 39.131 11.128 39.131 31.279c0 21.505-16.484 33.535-46.372 33.535h-38.67zm0 161.96v-71.431h45.602c32.661 0 49.608 12.03 49.608 35.49c0 23.459-16.484 35.941-47.605 35.941z" filter="url(#IconifyId19be701fead3d37ea15)" transform="translate(1.494 2.203)scale(.24566)"/>
    </symbol>
    <symbol id="icon_figma" viewBox="0 0 128 128">
        <path fill="#0acf83" d="M45.5 129c11.9 0 21.5-9.6 21.5-21.5V86H45.5C33.6 86 24 95.6 24 107.5S33.6 129 45.5 129m0 0"/>
        <path fill="#a259ff" d="M24 64.5C24 52.6 33.6 43 45.5 43H67v43H45.5C33.6 86 24 76.4 24 64.5m0 0"/>
        <path fill="#f24e1e" d="M24 21.5C24 9.6 33.6 0 45.5 0H67v43H45.5C33.6 43 24 33.4 24 21.5m0 0"/>
        <path fill="#ff7262" d="M67 0h21.5C100.4 0 110 9.6 110 21.5S100.4 43 88.5 43H67zm0 0"/>
        <path fill="#1abcfe" d="M110 64.5c0 11.9-9.6 21.5-21.5 21.5S67 76.4 67 64.5S76.6 43 88.5 43S110 52.6 110 64.5m0 0"/>
    </symbol>
    <symbol id="icon_markdown" viewBox="0 0 72 72">
        <path fill="#fff" d="M61 22.61H11v26.77h50z"/>
        <path fill="none" stroke="#000" stroke-linecap="round" stroke-linejoin="round" stroke-width="3" d="M61.26 22.35H10.75v27.29h50.51z"/>
        <path fill="none" stroke="#000" stroke-linecap="round" stroke-linejoin="round" stroke-width="1.36" d="m46.537 44.84l8.833-9.874h-6.48l-.11-7.806h-4.616l.013 7.806h-6.473z"/>
        <path fill="none" stroke="#000" stroke-linecap="round" stroke-linejoin="round" stroke-miterlimit="10" stroke-width="4.231" d="M30.76 43.41V28.6l-6.347 12.69l-6.347-12.69v14.81" clip-rule="evenodd"/>
        <path d="m46.537 44.84l8.833-9.874h-6.48l-.11-7.806h-4.616l.013 7.806h-6.473z"/>
    </symbol>
    <symbol id="icon_git" viewBox="0 0 32 32">
        <path fill="#e64a19" d="M13.172 2.828L11.78 4.22l1.91 1.91l2 2A2.986 2.986 0 0 1 20 10.81a3.25 3.25 0 0 1-.31 1.31l2.06 2a2.68 2.68 0 0 1 3.37.57a2.86 2.86 0 0 1 .88 2.117a3.02 3.02 0 0 1-.856 2.109A2.9 2.9 0 0 1 23 19.81a2.93 2.93 0 0 1-2.13-.87a2.694 2.694 0 0 1-.56-3.38l-2-2.06a3 3 0 0 1-.31.12V20a3 3 0 0 1 1.44 1.09a2.92 2.92 0 0 1 .56 1.72a2.88 2.88 0 0 1-.878 2.128a2.98 2.98 0 0 1-2.048.871a2.981 2.981 0 0 1-2.514-4.719A3 3 0 0 1 16 20v-6.38a2.96 2.96 0 0 1-1.44-1.09a2.9 2.9 0 0 1-.56-1.72a2.9 2.9 0 0 1 .31-1.31l-3.9-3.9l-7.579 7.572a4 4 0 0 0-.001 5.658l10.342 10.342a4 4 0 0 0 5.656 0l10.344-10.344a4 4 0 0 0 0-5.656L18.828 2.828a4 4 0 0 0-5.656 0"/>
    </symbol>
</svg>