<svg xmlns="http://www.w3.org/2000/svg">
    <symbol id="close" viewBox="0 0 24 24" fill="currentColor">
        <path d="M11.9997 10.5865L16.9495 5.63672L18.3637 7.05093L13.4139 12.0007L18.3637 16.9504L16.9495 18.3646L11.9997 13.4149L7.04996 18.3646L5.63574 16.9504L10.5855 12.0007L5.63574 7.05093L7.04996 5.63672L11.9997 10.5865Z"></path>
    </symbol>
    <symbol id="arrow" viewBox="0 0 7 9" fill="none" >
        <path d="M6.25 4.37245L0.25 8.62247L0.25 0.122436L6.25 4.37245Z" fill="white"/>
    </symbol>
    <symbol id="email" width="17" height="15" viewBox="0 0 17 15" fill="none">
        <path d="M0.811096 0H15.4108C15.6259 0 15.8322 0.0854545 15.9844 0.237565C16.1365 0.389675 16.2219 0.59598 16.2219 0.811096V13.7886C16.2219 14.0038 16.1365 14.2101 15.9844 14.3622C15.8322 14.5143 15.6259 14.5997 15.4108 14.5997H0.811096C0.59598 14.5997 0.389675 14.5143 0.237565 14.3622C0.0854545 14.2101 0 14.0038 0 13.7886V0.811096C0 0.59598 0.0854545 0.389675 0.237565 0.237565C0.389675 0.0854545 0.59598 0 0.811096 0ZM8.15963 7.04275L2.95888 2.62633L1.90851 3.86244L8.17017 9.17918L14.3191 3.85838L13.2582 2.6312L8.16044 7.04275H8.15963Z" fill="#607B96"/>
    </symbol>
    <symbol id="phone" width="17" height="17" viewBox="0 0 17 17" fill="none">
        <path d="M16.221 12.496V15.6825C16.2211 15.9107 16.1347 16.1304 15.9791 16.2973C15.8236 16.4642 15.6105 16.5659 15.3829 16.5819C14.9891 16.6089 14.6674 16.6234 14.4187 16.6234C6.45507 16.6234 0 10.1683 0 2.20468C0 1.95596 0.0135175 1.63424 0.0414537 1.24043C0.0574246 1.01283 0.159129 0.799769 0.326046 0.644225C0.492962 0.488682 0.712664 0.402241 0.940819 0.402344H4.12735C4.23913 0.402231 4.34696 0.44367 4.4299 0.518613C4.51283 0.593555 4.56495 0.69665 4.57613 0.80787C4.59686 1.01514 4.61578 1.18005 4.63381 1.30531C4.8129 2.55517 5.17992 3.77076 5.72242 4.91089C5.80803 5.09112 5.75215 5.3065 5.58994 5.42185L3.64522 6.81145C4.83427 9.58205 7.04222 11.79 9.81282 12.979L11.2006 11.0379C11.2573 10.9586 11.3401 10.9017 11.4345 10.8772C11.5288 10.8527 11.6288 10.862 11.717 10.9037C12.857 11.4451 14.0723 11.8112 15.3217 11.9896C15.4469 12.0076 15.6118 12.0274 15.8173 12.0472C15.9284 12.0586 16.0312 12.1108 16.106 12.1937C16.1807 12.2767 16.2221 12.3844 16.2219 12.496H16.221Z" fill="#607B96"/>
    </symbol>
    <symbol id="link" width="16" height="16" viewBox="0 0 16 16" fill="none">
        <path d="M6.22222 2.66667V4.44444H1.77778V14.2222H11.5556V9.77778H13.3333V15.1111C13.3333 15.3469 13.2397 15.573 13.073 15.7397C12.9063 15.9064 12.6802 16 12.4444 16H0.888889C0.653141 16 0.427048 15.9064 0.260349 15.7397C0.0936505 15.573 0 15.3469 0 15.1111V3.55556C0 3.31981 0.0936505 3.09372 0.260349 2.92702C0.427048 2.76032 0.653141 2.66667 0.888889 2.66667H6.22222ZM16 0V7.11111H14.2222V3.03378L7.29511 9.96178L6.03822 8.70489L12.9644 1.77778H8.88889V0H16Z" fill="#607B96"/>
    </symbol>
    <symbol id="mail" viewBox="4.75 -56.63 985.86 72.14">
        <path fill="currentcolor" d="M38.3-16.42L13.1-16.42Q13.36-12.53 14.76-10.06Q16.16-7.6 18.45-6.44Q20.74-5.29 23.47-5.29L23.47-5.29Q26.28-5.29 28.66-6.16Q31.03-7.02 33.44-8.6L33.44-8.6L36.94-3.78Q34.27-1.62 30.71-0.32Q27.14 0.97 23.08 0.97L23.08 0.97Q17.17 0.97 13.09-1.55Q9-4.07 6.88-8.57Q4.75-13.07 4.75-18.97L4.75-18.97Q4.75-24.7 6.84-29.21Q8.93-33.73 12.82-36.38Q16.7-39.02 22.1-39.02L22.1-39.02Q27.18-39.02 30.83-36.72Q34.49-34.42 36.49-30.19Q38.48-25.96 38.48-20.02L38.48-20.02Q38.48-19.04 38.43-18.09Q38.38-17.14 38.3-16.42L38.3-16.42ZM22.18-33.05L22.18-33.05Q18.4-33.05 15.93-30.35Q13.46-27.65 13.07-21.92L13.07-21.92L30.67-21.92Q30.56-27.29 28.39-30.17Q26.21-33.05 22.18-33.05ZM71.28 0L49.97 0L49.97-5.76L55.55-5.76L55.55-32.29L49.97-32.29L49.97-38.02L61.7-38.02L63.18-29.2Q65.3-33.98 68.45-36.49Q71.6-38.99 76.57-38.99L76.57-38.99Q78.26-38.99 79.61-38.72Q80.96-38.45 82.3-38.02L82.3-38.02L79.88-31.1Q78.73-31.43 77.72-31.59Q76.72-31.75 75.49-31.75L75.49-31.75Q71.35-31.75 68.35-28.66Q65.34-25.56 63.61-19.87L63.61-19.87L63.61-5.76L71.28-5.76L71.28 0ZM80.93-24.01L75.17-24.01L75.17-33.37L76.18-38.02L82.3-38.02L80.93-24.01ZM94.5-38.02L113.58-38.02L113.58-5.9L123.91-5.9L123.91 0L94.14 0L94.14-5.9L105.52-5.9L105.52-32.11L94.5-32.11L94.5-38.02ZM107.96-56.63L107.96-56.63Q110.34-56.63 111.8-55.19Q113.26-53.75 113.26-51.59L113.26-51.59Q113.26-49.43 111.8-47.95Q110.34-46.48 107.96-46.48L107.96-46.48Q105.66-46.48 104.18-47.95Q102.71-49.43 102.71-51.59L102.71-51.59Q102.71-53.75 104.18-55.19Q105.66-56.63 107.96-56.63ZM160.09-38.02L169.49-38.02L154.12-21.02L171.11 0L161.24 0L144.9-20.81L160.09-38.02ZM136.26-53.28L144.32-54.18L144.32 0L136.26 0L136.26-53.28ZM187.42-6.01L187.42-6.01Q187.42-7.96 188.33-9.52Q189.25-11.09 190.84-12.02Q192.42-12.96 194.36-12.96L194.36-12.96Q196.34-12.96 197.93-12.02Q199.51-11.09 200.43-9.52Q201.35-7.96 201.35-6.01L201.35-6.01Q201.35-4.1 200.43-2.5Q199.51-0.9 197.93 0.04Q196.34 0.97 194.36 0.97L194.36 0.97Q192.42 0.97 190.84 0.04Q189.25-0.9 188.33-2.5Q187.42-4.1 187.42-6.01ZM248.62-39.02L248.62-39.02Q250.78-39.02 252.5-38.09Q254.23-37.15 255.22-34.81Q256.21-32.47 256.21-28.26L256.21-28.26L256.21 0L249.05 0L249.05-27.14Q249.05-30.13 248.63-31.43Q248.22-32.72 246.49-32.72L246.49-32.72Q245.12-32.72 243.72-31.88Q242.32-31.03 240.88-28.98L240.88-28.98L240.88 0L234.36 0L234.36-27.14Q234.36-30.13 233.95-31.43Q233.53-32.72 231.8-32.72L231.8-32.72Q230.4-32.72 229.01-31.88Q227.63-31.03 226.19-28.98L226.19-28.98L226.19 0L218.99 0L218.99-38.02L225.07-38.02L225.61-33.91Q227.23-36.18 229.14-37.6Q231.05-39.02 233.75-39.02L233.75-39.02Q235.91-39.02 237.67-37.94Q239.44-36.86 240.26-34.16L240.26-34.16Q241.85-36.32 243.86-37.67Q245.88-39.02 248.62-39.02ZM297.5-16.42L272.3-16.42Q272.56-12.53 273.96-10.06Q275.36-7.6 277.65-6.44Q279.94-5.29 282.67-5.29L282.67-5.29Q285.48-5.29 287.86-6.16Q290.23-7.02 292.64-8.6L292.64-8.6L296.14-3.78Q293.47-1.62 289.91-0.32Q286.34 0.97 282.28 0.97L282.28 0.97Q276.37 0.97 272.29-1.55Q268.2-4.07 266.08-8.57Q263.95-13.07 263.95-18.97L263.95-18.97Q263.95-24.7 266.04-29.21Q268.13-33.73 272.02-36.38Q275.9-39.02 281.3-39.02L281.3-39.02Q286.38-39.02 290.03-36.72Q293.69-34.42 295.69-30.19Q297.68-25.96 297.68-20.02L297.68-20.02Q297.68-19.04 297.63-18.09Q297.58-17.14 297.5-16.42L297.5-16.42ZM281.38-33.05L281.38-33.05Q277.6-33.05 275.13-30.35Q272.66-27.65 272.27-21.92L272.27-21.92L289.87-21.92Q289.76-27.29 287.59-30.17Q285.41-33.05 281.38-33.05ZM331.13-34.88L331.13-54.18L339.19-53.28L339.19 0L332.1 0L331.52-4.68Q329.58-1.98 326.88-0.5Q324.18 0.97 320.83 0.97L320.83 0.97Q315.94 0.97 312.77-1.53Q309.6-4.03 308.07-8.55Q306.54-13.07 306.54-19.01L306.54-19.01Q306.54-24.8 308.34-29.32Q310.14-33.84 313.49-36.43Q316.84-39.02 321.55-39.02L321.55-39.02Q324.54-39.02 326.92-37.96Q329.29-36.9 331.13-34.88L331.13-34.88ZM323.68-32.83L323.68-32.83Q319.61-32.83 317.34-29.47Q315.07-26.1 315.07-19.01L315.07-19.01Q315.07-14.15 316.01-11.11Q316.94-8.06 318.71-6.64Q320.47-5.22 322.96-5.22L322.96-5.22Q325.69-5.22 327.71-6.8Q329.72-8.39 331.13-10.62L331.13-10.62L331.13-28.62Q329.72-30.64 327.85-31.73Q325.98-32.83 323.68-32.83ZM353.7-38.02L372.78-38.02L372.78-5.9L383.11-5.9L383.11 0L353.34 0L353.34-5.9L364.72-5.9L364.72-32.11L353.7-32.11L353.7-38.02ZM367.16-56.63L367.16-56.63Q369.54-56.63 371-55.19Q372.46-53.75 372.46-51.59L372.46-51.59Q372.46-49.43 371-47.95Q369.54-46.48 367.16-46.48L367.16-46.48Q364.86-46.48 363.38-47.95Q361.91-49.43 361.91-51.59L361.91-51.59Q361.91-53.75 363.38-55.19Q364.86-56.63 367.16-56.63ZM403.27 0L395.21 0L395.21-38.02L402.16-38.02L402.77-33.08Q405.14-36 408.38-37.51Q411.62-39.02 415.04-39.02L415.04-39.02Q420.37-39.02 423.02-36.05Q425.66-33.08 425.66-27.72L425.66-27.72L425.66 0L417.6 0L417.6-23.72Q417.6-27.04 417.2-29.05Q416.81-31.07 415.64-31.97Q414.47-32.87 412.16-32.87L412.16-32.87Q410.33-32.87 408.67-32.08Q407.02-31.28 405.65-30.01Q404.28-28.73 403.27-27.29L403.27-27.29L403.27 0ZM467.46-26.28L467.46-9.32Q467.46-7.09 468.14-6.07Q468.83-5.04 470.34-4.54L470.34-4.54L468.54 0.94Q465.73 0.61 463.72-0.61Q461.7-1.84 460.66-4.32L460.66-4.32Q458.57-1.69 455.36-0.36Q452.16 0.97 448.52 0.97L448.52 0.97Q442.76 0.97 439.4-2.29Q436.03-5.54 436.03-10.84L436.03-10.84Q436.03-16.85 440.71-20.09Q445.39-23.33 454.1-23.33L454.1-23.33L459.54-23.33L459.54-25.81Q459.54-29.48 457.33-31.1Q455.11-32.72 451.08-32.72L451.08-32.72Q449.21-32.72 446.54-32.24Q443.88-31.75 440.96-30.74L440.96-30.74L438.98-36.43Q442.55-37.76 445.97-38.39Q449.39-39.02 452.3-39.02L452.3-39.02Q459.94-39.02 463.7-35.64Q467.46-32.26 467.46-26.28L467.46-26.28ZM450.97-4.97L450.97-4.97Q453.42-4.97 455.76-6.26Q458.1-7.56 459.54-9.9L459.54-9.9L459.54-18.29L455.08-18.29Q449.39-18.29 446.94-16.4Q444.49-14.51 444.49-11.2L444.49-11.2Q444.49-8.17 446.13-6.57Q447.77-4.97 450.97-4.97ZM496.8-50.69L496.8-50.69Q505.15-50.69 509.44-43.96Q513.72-37.22 513.72-24.91L513.72-24.91Q513.72-12.56 509.44-5.8Q505.15 0.97 496.8 0.97L496.8 0.97Q488.41 0.97 484.15-5.8Q479.88-12.56 479.88-24.91L479.88-24.91Q479.88-37.22 484.15-43.96Q488.41-50.69 496.8-50.69ZM496.8-44.53L496.8-44.53Q492.52-44.53 490.21-39.98Q487.91-35.42 487.91-24.91L487.91-24.91Q487.91-19.3 488.39-15.5Q488.88-11.7 489.94-9.43Q491-7.16 492.7-6.17Q494.39-5.18 496.8-5.18L496.8-5.18Q499.68-5.18 501.66-7.15Q503.64-9.11 504.67-13.46Q505.69-17.82 505.69-24.91L505.69-24.91Q505.69-32.29 504.81-36.59Q503.93-40.9 501.98-42.71Q500.04-44.53 496.8-44.53ZM488.09-11.48L503.5-42.84L505.58-37.19L490.75-6.91L488.09-11.48ZM555.52-43.88L535.9 0.86L528.3-1.48L547.34-43.34L524.59-43.34L524.59-49.68L555.52-49.68L555.52-43.88ZM582.12-50.69L582.12-50.69Q587.52-50.69 591.34-49.12Q595.15-47.56 597.65-44.77Q600.16-41.98 601.56-38.2Q602.96-34.42 603.54-29.99Q604.12-25.56 604.12-20.81L604.12-20.81Q604.12-11.74 603.25-5.63Q602.39 0.47 600.03 3.55Q597.67 6.62 593.24 6.62L593.24 6.62Q591.08 6.62 589.48 5.65Q587.88 4.68 586.85 3.15Q585.83 1.62 585.31-0.16Q584.78-1.94 584.71-3.53L584.71-3.53L584.42-3.53Q583.7-1.8 582.44-0.22Q581.18 1.37 579.24 2.38Q577.3 3.38 574.49 3.38L574.49 3.38Q570.46 3.38 568.01 1.24Q565.56-0.9 564.44-4.64Q563.33-8.39 563.33-13.1L563.33-13.1Q563.33-22.28 567.07-27.13Q570.82-31.97 577.91-31.97L577.91-31.97Q580.57-31.97 583.18-31.34Q585.79-30.71 588.82-29.09L588.82-29.09L588.82-7.7Q588.82-4.28 589.36-2.41Q589.9-0.54 590.85 0.18Q591.8 0.9 593.03 0.9L593.03 0.9Q594.47 0.9 595.28-0.58Q596.09-2.05 596.45-4.84Q596.81-7.63 596.88-11.59Q596.95-15.55 596.95-20.52L596.95-20.52Q596.95-25.85 596.36-30.29Q595.76-34.74 594.16-37.98Q592.56-41.22 589.61-42.98Q586.66-44.75 581.94-44.75L581.94-44.75Q578.3-44.75 574.29-43.38Q570.28-42.01 565.85-38.12L565.85-38.12L561.96-42.62Q566.86-46.87 571.88-48.78Q576.9-50.69 582.12-50.69ZM578.02-26.5L578.02-26.5Q573.88-26.5 572.36-23.27Q570.85-20.05 570.85-13.1L570.85-13.1Q570.85-9.65 571.28-7.2Q571.72-4.75 572.8-3.46Q573.88-2.16 575.71-2.16L575.71-2.16Q577.91-2.16 579.13-3.17Q580.36-4.18 580.97-5.56Q581.58-6.95 581.9-7.99L581.9-7.99L581.9-25.56Q580.93-26.06 580.03-26.28Q579.13-26.5 578.02-26.5ZM643.21-42.84L643.21-42.84L645.37-36.14Q643.1-35.39 640.39-35.14Q637.67-34.88 634.32-34.88L634.32-34.88Q637.74-33.37 639.47-31.01Q641.2-28.66 641.2-25.24L641.2-25.24Q641.2-21.53 639.4-18.61Q637.6-15.7 634.25-14.04Q630.9-12.38 626.22-12.38L626.22-12.38Q624.56-12.38 623.36-12.53Q622.15-12.67 621-13L621-13Q620.28-12.49 619.79-11.65Q619.31-10.8 619.31-9.86L619.31-9.86Q619.31-8.71 620.26-7.87Q621.22-7.02 624.06-7.02L624.06-7.02L630.68-7.02Q634.75-7.02 637.87-5.63Q640.98-4.25 642.76-1.85Q644.54 0.54 644.54 3.56L644.54 3.56Q644.54 9.25 639.65 12.38Q634.75 15.52 625.54 15.52L625.54 15.52Q619.02 15.52 615.31 14.18Q611.6 12.85 610.09 10.22Q608.58 7.6 608.58 3.78L608.58 3.78L615.82 3.78Q615.82 5.76 616.59 7.06Q617.36 8.35 619.49 9Q621.61 9.65 625.61 9.65L625.61 9.65Q629.6 9.65 631.96 8.98Q634.32 8.32 635.38 7.07Q636.44 5.83 636.44 4.1L636.44 4.1Q636.44 1.8 634.43 0.54Q632.41-0.72 629.03-0.72L629.03-0.72L622.51-0.72Q617.11-0.72 614.61-2.92Q612.11-5.11 612.11-8.03L612.11-8.03Q612.11-9.97 613.21-11.77Q614.3-13.57 616.36-14.9L616.36-14.9Q612.94-16.7 611.37-19.28Q609.8-21.85 609.8-25.52L609.8-25.52Q609.8-29.56 611.82-32.58Q613.84-35.6 617.42-37.3Q621-38.99 625.68-38.99L625.68-38.99Q630.25-38.99 633.31-39.47Q636.37-39.96 638.66-40.86Q640.94-41.76 643.21-42.84ZM625.75-33.44L625.75-33.44Q621.9-33.44 619.96-31.27Q618.01-29.09 618.01-25.6L618.01-25.6Q618.01-22 620.01-19.82Q622.01-17.64 625.86-17.64L625.86-17.64Q629.42-17.64 631.31-19.73Q633.2-21.82 633.2-25.67L633.2-25.67Q633.2-29.56 631.33-31.5Q629.46-33.44 625.75-33.44ZM680.62-39.02L680.62-39.02Q682.78-39.02 684.5-38.09Q686.23-37.15 687.22-34.81Q688.21-32.47 688.21-28.26L688.21-28.26L688.21 0L681.05 0L681.05-27.14Q681.05-30.13 680.63-31.43Q680.22-32.72 678.49-32.72L678.49-32.72Q677.12-32.72 675.72-31.88Q674.32-31.03 672.88-28.98L672.88-28.98L672.88 0L666.36 0L666.36-27.14Q666.36-30.13 665.95-31.43Q665.53-32.72 663.8-32.72L663.8-32.72Q662.4-32.72 661.01-31.88Q659.63-31.03 658.19-28.98L658.19-28.98L658.19 0L650.99 0L650.99-38.02L657.07-38.02L657.61-33.91Q659.23-36.18 661.14-37.6Q663.05-39.02 665.75-39.02L665.75-39.02Q667.91-39.02 669.67-37.94Q671.44-36.86 672.26-34.16L672.26-34.16Q673.85-36.32 675.86-37.67Q677.88-39.02 680.62-39.02ZM726.66-26.28L726.66-9.32Q726.66-7.09 727.34-6.07Q728.03-5.04 729.54-4.54L729.54-4.54L727.74 0.94Q724.93 0.61 722.92-0.61Q720.9-1.84 719.86-4.32L719.86-4.32Q717.77-1.69 714.56-0.36Q711.36 0.97 707.72 0.97L707.72 0.97Q701.96 0.97 698.6-2.29Q695.23-5.54 695.23-10.84L695.23-10.84Q695.23-16.85 699.91-20.09Q704.59-23.33 713.3-23.33L713.3-23.33L718.74-23.33L718.74-25.81Q718.74-29.48 716.53-31.1Q714.31-32.72 710.28-32.72L710.28-32.72Q708.41-32.72 705.74-32.24Q703.08-31.75 700.16-30.74L700.16-30.74L698.18-36.43Q701.75-37.76 705.17-38.39Q708.59-39.02 711.5-39.02L711.5-39.02Q719.14-39.02 722.9-35.64Q726.66-32.26 726.66-26.28L726.66-26.28ZM710.17-4.97L710.17-4.97Q712.62-4.97 714.96-6.26Q717.3-7.56 718.74-9.9L718.74-9.9L718.74-18.29L714.28-18.29Q708.59-18.29 706.14-16.4Q703.69-14.51 703.69-11.2L703.69-11.2Q703.69-8.17 705.33-6.57Q706.97-4.97 710.17-4.97ZM742.5-38.02L761.58-38.02L761.58-5.9L771.91-5.9L771.91 0L742.14 0L742.14-5.9L753.52-5.9L753.52-32.11L742.5-32.11L742.5-38.02ZM755.96-56.63L755.96-56.63Q758.34-56.63 759.8-55.19Q761.26-53.75 761.26-51.59L761.26-51.59Q761.26-49.43 759.8-47.95Q758.34-46.48 755.96-46.48L755.96-46.48Q753.66-46.48 752.18-47.95Q750.71-49.43 750.71-51.59L750.71-51.59Q750.71-53.75 752.18-55.19Q753.66-56.63 755.96-56.63ZM781.16-53.28L800.71-53.28L800.71-10.37Q800.71-7.74 802.31-6.64Q803.92-5.54 806.47-5.54L806.47-5.54Q808.13-5.54 809.6-5.9Q811.08-6.26 812.48-6.8L812.48-6.8L814.54-1.19Q812.84-0.32 810.38 0.32Q807.91 0.97 804.74 0.97L804.74 0.97Q799.02 0.97 795.83-2.25Q792.65-5.47 792.65-11.09L792.65-11.09L792.65-47.34L781.16-47.34L781.16-53.28ZM835.42-6.01L835.42-6.01Q835.42-7.96 836.33-9.52Q837.25-11.09 838.84-12.02Q840.42-12.96 842.36-12.96L842.36-12.96Q844.34-12.96 845.93-12.02Q847.51-11.09 848.43-9.52Q849.35-7.96 849.35-6.01L849.35-6.01Q849.35-4.1 848.43-2.5Q847.51-0.9 845.93 0.04Q844.34 0.97 842.36 0.97L842.36 0.97Q840.42 0.97 838.84 0.04Q837.25-0.9 836.33-2.5Q835.42-4.1 835.42-6.01ZM888.73-5.65L888.73-5.65Q891.4-5.65 893.7-6.57Q896-7.49 898.09-8.96L898.09-8.96L901.84-3.78Q899.35-1.66 895.81-0.34Q892.26 0.97 888.48 0.97L888.48 0.97Q882.65 0.97 878.51-1.49Q874.37-3.96 872.17-8.42Q869.98-12.89 869.98-18.83L869.98-18.83Q869.98-24.62 872.19-29.18Q874.4-33.73 878.58-36.38Q882.76-39.02 888.62-39.02L888.62-39.02Q892.51-39.02 895.79-37.87Q899.06-36.72 901.8-34.45L901.8-34.45L898.09-29.38Q895.86-30.92 893.54-31.73Q891.22-32.54 888.77-32.54L888.77-32.54Q884.27-32.54 881.41-29.23Q878.54-25.92 878.54-18.83L878.54-18.83Q878.54-14.08 879.86-11.18Q881.17-8.28 883.48-6.97Q885.78-5.65 888.73-5.65ZM928.84-39.02L928.84-39.02Q934.42-39.02 938.23-36.54Q942.05-34.06 944.01-29.59Q945.97-25.13 945.97-19.08L945.97-19.08Q945.97-13.07 943.97-8.55Q941.98-4.03 938.14-1.53Q934.31 0.97 928.8 0.97L928.8 0.97Q923.29 0.97 919.46-1.46Q915.62-3.89 913.63-8.39Q911.63-12.89 911.63-19.01L911.63-19.01Q911.63-24.95 913.63-29.45Q915.62-33.95 919.48-36.49Q923.33-39.02 928.84-39.02ZM928.84-32.76L928.84-32.76Q924.48-32.76 922.28-29.43Q920.09-26.1 920.09-19.01L920.09-19.01Q920.09-11.95 922.27-8.6Q924.44-5.26 928.8-5.26L928.8-5.26Q933.16-5.26 935.33-8.6Q937.51-11.95 937.51-19.08L937.51-19.08Q937.51-26.1 935.35-29.43Q933.19-32.76 928.84-32.76ZM983.02-39.02L983.02-39.02Q985.18-39.02 986.9-38.09Q988.63-37.15 989.62-34.81Q990.61-32.47 990.61-28.26L990.61-28.26L990.61 0L983.45 0L983.45-27.14Q983.45-30.13 983.03-31.43Q982.62-32.72 980.89-32.72L980.89-32.72Q979.52-32.72 978.12-31.88Q976.72-31.03 975.28-28.98L975.28-28.98L975.28 0L968.76 0L968.76-27.14Q968.76-30.13 968.35-31.43Q967.93-32.72 966.2-32.72L966.2-32.72Q964.8-32.72 963.41-31.88Q962.03-31.03 960.59-28.98L960.59-28.98L960.59 0L953.39 0L953.39-38.02L959.47-38.02L960.01-33.91Q961.63-36.18 963.54-37.6Q965.45-39.02 968.15-39.02L968.15-39.02Q970.31-39.02 972.07-37.94Q973.84-36.86 974.66-34.16L974.66-34.16Q976.25-36.32 978.26-37.67Q980.28-39.02 983.02-39.02Z"></path>
    </symbol>
    <symbol id="numberphone" viewBox="3.82 -50.69 594.32 52.45">
        <path fill="currentcolor" d="M18-40.18L25.09-40.18L25.09-25.67L39.38-25.67L39.38-19.19L25.09-19.19L25.09-4.72L18-4.72L18-19.19L3.82-19.19L3.82-25.67L18-25.67L18-40.18ZM51.19-49.68L79.02-49.68L77.98-43.63L58.9-43.63L58.9-29.81Q61.02-30.92 63.02-31.34Q65.02-31.75 67.03-31.75L67.03-31.75Q70.99-31.75 74.09-29.88Q77.18-28.01 78.97-24.48Q80.75-20.95 80.75-15.95L80.75-15.95Q80.75-10.98 78.53-7.15Q76.32-3.31 72.32-1.17Q68.33 0.97 62.93 0.97L62.93 0.97Q58.07 0.97 54.31-0.77Q50.54-2.52 47.7-5.54L47.7-5.54L52.52-10.08Q54.61-7.78 57.11-6.61Q59.62-5.44 62.6-5.44L62.6-5.44Q67.14-5.44 69.75-8.19Q72.36-10.94 72.36-15.98L72.36-15.98Q72.36-19.66 71.3-21.8Q70.24-23.94 68.4-24.88Q66.56-25.81 64.26-25.81L64.26-25.81Q62.39-25.81 60.75-25.42Q59.11-25.02 57.13-24.16L57.13-24.16L51.19-24.16L51.19-49.68ZM90.83-17.06L105.12-50.69L111.92-47.99L99.25-17.71L125.14-17.71L125.14-11.45L90.83-11.45L90.83-17.06ZM112.46-31L119.23-31L119.23 0L111.49 0L111.42-16.56L112.46-31ZM150.62-50.62L150.62-50.62Q156.28-50.62 160.06-48.13Q163.84-45.65 165.73-41.13Q167.62-36.61 167.62-30.49L167.62-30.49Q167.62-23.11 165.98-17.8Q164.34-12.49 160.94-8.78Q157.54-5.08 152.26-2.56Q146.99-0.04 139.68 1.76L139.68 1.76L137.92-4.14Q144.72-5.98 149.29-8.55Q153.86-11.12 156.33-14.99Q158.8-18.86 159.19-24.44L159.19-24.44L159.26-28.04Q159.3-33.91 158.47-37.55Q157.64-41.18 155.74-42.84Q153.83-44.5 150.59-44.5L150.59-44.5Q146.45-44.5 144.22-41.8Q141.98-39.1 141.98-33.7L141.98-33.7Q141.98-28.44 144.16-26.14Q146.34-23.83 149.94-23.83L149.94-23.83Q153.18-23.83 155.63-25.54Q158.08-27.25 160.34-30.24L160.34-30.24L160.27-24.52Q157.9-21.53 154.93-19.67Q151.96-17.82 147.92-17.82L147.92-17.82Q143.86-17.82 140.65-19.75Q137.45-21.67 135.61-25.25Q133.78-28.84 133.78-33.7L133.78-33.7Q133.78-39.06 136.03-42.84Q138.28-46.62 142.09-48.62Q145.91-50.62 150.62-50.62ZM193.9-49.68L201.02-49.68L201.02-1.44L193.03-1.44L193.03-41.4L182.09-34.67L178.63-40.32L193.9-49.68ZM180.9-6.34L210.96-6.34L210.96 0L180.9 0L180.9-6.34ZM237.1-49.68L244.22-49.68L244.22-1.44L236.23-1.44L236.23-41.4L225.29-34.67L221.83-40.32L237.1-49.68ZM224.1-6.34L254.16-6.34L254.16 0L224.1 0L224.1-6.34ZM263.63-17.06L277.92-50.69L284.72-47.99L272.05-17.71L297.94-17.71L297.94-11.45L263.63-11.45L263.63-17.06ZM285.26-31L292.03-31L292.03 0L284.29 0L284.22-16.56L285.26-31ZM324-50.69L324-50.69Q332.35-50.69 336.64-43.96Q340.92-37.22 340.92-24.91L340.92-24.91Q340.92-12.56 336.64-5.8Q332.35 0.97 324 0.97L324 0.97Q315.61 0.97 311.35-5.8Q307.08-12.56 307.08-24.91L307.08-24.91Q307.08-37.22 311.35-43.96Q315.61-50.69 324-50.69ZM324-44.53L324-44.53Q319.72-44.53 317.41-39.98Q315.11-35.42 315.11-24.91L315.11-24.91Q315.11-19.3 315.59-15.5Q316.08-11.7 317.14-9.43Q318.2-7.16 319.9-6.17Q321.59-5.18 324-5.18L324-5.18Q326.88-5.18 328.86-7.15Q330.84-9.11 331.87-13.46Q332.89-17.82 332.89-24.91L332.89-24.91Q332.89-32.29 332.01-36.59Q331.13-40.9 329.18-42.71Q327.24-44.53 324-44.53ZM315.29-11.48L330.7-42.84L332.78-37.19L317.95-6.91L315.29-11.48ZM353.59-49.68L381.42-49.68L380.38-43.63L361.3-43.63L361.3-29.81Q363.42-30.92 365.42-31.34Q367.42-31.75 369.43-31.75L369.43-31.75Q373.39-31.75 376.49-29.88Q379.58-28.01 381.37-24.48Q383.15-20.95 383.15-15.95L383.15-15.95Q383.15-10.98 380.93-7.15Q378.72-3.31 374.72-1.17Q370.73 0.97 365.33 0.97L365.33 0.97Q360.47 0.97 356.71-0.77Q352.94-2.52 350.1-5.54L350.1-5.54L354.92-10.08Q357.01-7.78 359.51-6.61Q362.02-5.44 365-5.44L365-5.44Q369.54-5.44 372.15-8.19Q374.76-10.94 374.76-15.98L374.76-15.98Q374.76-19.66 373.7-21.8Q372.64-23.94 370.8-24.88Q368.96-25.81 366.66-25.81L366.66-25.81Q364.79-25.81 363.15-25.42Q361.51-25.02 359.53-24.16L359.53-24.16L353.59-24.16L353.59-49.68ZM410.4-50.69L410.4-50.69Q418.75-50.69 423.04-43.96Q427.32-37.22 427.32-24.91L427.32-24.91Q427.32-12.56 423.04-5.8Q418.75 0.97 410.4 0.97L410.4 0.97Q402.01 0.97 397.75-5.8Q393.48-12.56 393.48-24.91L393.48-24.91Q393.48-37.22 397.75-43.96Q402.01-50.69 410.4-50.69ZM410.4-44.53L410.4-44.53Q406.12-44.53 403.81-39.98Q401.51-35.42 401.51-24.91L401.51-24.91Q401.51-19.3 401.99-15.5Q402.48-11.7 403.54-9.43Q404.6-7.16 406.3-6.17Q407.99-5.18 410.4-5.18L410.4-5.18Q413.28-5.18 415.26-7.15Q417.24-9.11 418.27-13.46Q419.29-17.82 419.29-24.91L419.29-24.91Q419.29-32.29 418.41-36.59Q417.53-40.9 415.58-42.71Q413.64-44.53 410.4-44.53ZM401.69-11.48L417.1-42.84L419.18-37.19L404.35-6.91L401.69-11.48ZM451.58-50.69L451.58-50.69Q456.66-50.69 460.17-48.8Q463.68-46.91 465.53-43.74Q467.39-40.57 467.39-36.65L467.39-36.65Q467.39-33.41 466.25-30.28Q465.12-27.14 462.62-23.71Q460.12-20.27 456.01-16.07Q451.91-11.88 445.97-6.48L445.97-6.48L468.54-6.48L467.6 0L436.72 0L436.72-6.12Q442.08-11.23 445.9-15.14Q449.71-19.04 452.27-22.01Q454.82-24.98 456.3-27.38Q457.78-29.77 458.41-31.88Q459.04-33.98 459.04-36.14L459.04-36.14Q459.04-39.89 456.91-42.05Q454.79-44.21 451.01-44.21L451.01-44.21Q447.62-44.21 445.39-42.98Q443.16-41.76 440.96-39.02L440.96-39.02L435.71-43.02Q438.62-46.73 442.4-48.71Q446.18-50.69 451.58-50.69ZM512.32-37.84L512.32-37.84Q512.32-34.27 510.23-31.66Q508.14-29.05 504.04-26.78L504.04-26.78Q508.97-24.62 511.63-21.22Q514.3-17.82 514.3-13.39L514.3-13.39Q514.3-9.4 512.21-6.14Q510.12-2.88 506.18-0.95Q502.24 0.97 496.62 0.97L496.62 0.97Q491.04 0.97 487.15-0.94Q483.26-2.84 481.28-6.07Q479.3-9.29 479.3-13.21L479.3-13.21Q479.3-17.68 481.93-20.83Q484.56-23.98 488.95-25.96L488.95-25.96Q485.06-28.04 483.17-30.65Q481.28-33.26 481.28-37.4L481.28-37.4Q481.28-40.75 482.62-43.22Q483.95-45.68 486.18-47.36Q488.41-49.03 491.18-49.86Q493.96-50.69 496.84-50.69L496.84-50.69Q499.9-50.69 502.67-49.88Q505.44-49.07 507.62-47.47Q509.8-45.86 511.06-43.45Q512.32-41.04 512.32-37.84ZM506.05-13.36L506.05-13.36Q506.05-16.38 504.63-18.18Q503.21-19.98 500.54-21.2Q497.88-22.43 494.17-23.72L494.17-23.72Q492.37-22.79 490.86-21.4Q489.35-20.02 488.45-18.07Q487.55-16.13 487.55-13.46L487.55-13.46Q487.55-9.65 489.85-7.4Q492.16-5.15 496.73-5.15L496.73-5.15Q501.34-5.15 503.69-7.52Q506.05-9.9 506.05-13.36ZM489.1-37.37L489.1-37.37Q489.1-34.92 490.21-33.41Q491.33-31.9 493.45-30.87Q495.58-29.84 498.6-28.8L498.6-28.8Q501.66-30.71 503.08-32.63Q504.5-34.56 504.5-37.44L504.5-37.44Q504.5-40.79 502.52-42.8Q500.54-44.82 496.84-44.82L496.84-44.82Q493.16-44.82 491.13-42.88Q489.1-40.93 489.1-37.37ZM540-50.69L540-50.69Q548.35-50.69 552.64-43.96Q556.92-37.22 556.92-24.91L556.92-24.91Q556.92-12.56 552.64-5.8Q548.35 0.97 540 0.97L540 0.97Q531.61 0.97 527.35-5.8Q523.08-12.56 523.08-24.91L523.08-24.91Q523.08-37.22 527.35-43.96Q531.61-50.69 540-50.69ZM540-44.53L540-44.53Q535.72-44.53 533.41-39.98Q531.11-35.42 531.11-24.91L531.11-24.91Q531.11-19.3 531.59-15.5Q532.08-11.7 533.14-9.43Q534.2-7.16 535.9-6.17Q537.59-5.18 540-5.18L540-5.18Q542.88-5.18 544.86-7.15Q546.84-9.11 547.87-13.46Q548.89-17.82 548.89-24.91L548.89-24.91Q548.89-32.29 548.01-36.59Q547.13-40.9 545.18-42.71Q543.24-44.53 540-44.53ZM531.29-11.48L546.7-42.84L548.78-37.19L533.95-6.91L531.29-11.48ZM581.18-50.69L581.18-50.69Q586.26-50.69 589.77-48.8Q593.28-46.91 595.13-43.74Q596.99-40.57 596.99-36.65L596.99-36.65Q596.99-33.41 595.85-30.28Q594.72-27.14 592.22-23.71Q589.72-20.27 585.61-16.07Q581.51-11.88 575.57-6.48L575.57-6.48L598.14-6.48L597.2 0L566.32 0L566.32-6.12Q571.68-11.23 575.5-15.14Q579.31-19.04 581.87-22.01Q584.42-24.98 585.9-27.38Q587.38-29.77 588.01-31.88Q588.64-33.98 588.64-36.14L588.64-36.14Q588.64-39.89 586.51-42.05Q584.39-44.21 580.61-44.21L580.61-44.21Q577.22-44.21 574.99-42.98Q572.76-41.76 570.56-39.02L570.56-39.02L565.31-43.02Q568.22-46.73 572-48.71Q575.78-50.69 581.18-50.69Z"></path>
    </symbol>
    <symbol id="bolt-up-left" viewBox="0 0 22 22" fill="none">
        <g filter="url(#filter0_di_64_1304)">
            <circle cx="9.23047" cy="9.27106" r="6.5" fill="url(#paint0_radial_64_1304)"/>
        </g>
        <path d="M6.46094 11.5657L11.9995 6.97635M6.46094 6.97635L11.9995 11.5657" stroke="#114944"/>
        <defs>
            <filter id="filter0_di_64_1304" x="0.730469" y="0.771057" width="21" height="21" filterUnits="userSpaceOnUse" color-interpolation-filters="sRGB">
                <feFlood flood-opacity="0" result="BackgroundImageFix"/>
                <feColorMatrix in="SourceAlpha" type="matrix" values="0 0 0 0 0 0 0 0 0 0 0 0 0 0 0 0 0 0 127 0" result="hardAlpha"/>
                <feOffset dx="2" dy="2"/>
                <feGaussianBlur stdDeviation="2"/>
                <feComposite in2="hardAlpha" operator="out"/>
                <feColorMatrix type="matrix" values="0 0 0 0 0.0525 0 0 0 0 0.2625 0 0 0 0 0.255726 0 0 0 1 0"/>
                <feBlend mode="normal" in2="BackgroundImageFix" result="effect1_dropShadow_64_1304"/>
                <feBlend mode="normal" in="SourceGraphic" in2="effect1_dropShadow_64_1304" result="shape"/>
                <feColorMatrix in="SourceAlpha" type="matrix" values="0 0 0 0 0 0 0 0 0 0 0 0 0 0 0 0 0 0 127 0" result="hardAlpha"/>
                <feOffset dy="1"/>
                <feGaussianBlur stdDeviation="1"/>
                <feComposite in2="hardAlpha" operator="arithmetic" k2="-1" k3="1"/>
                <feColorMatrix type="matrix" values="0 0 0 0 0.101667 0 0 0 0 0.508333 0 0 0 0 0.466409 0 0 0 1 0"/>
                <feBlend mode="normal" in2="shape" result="effect2_innerShadow_64_1304"/>
            </filter>
            <radialGradient id="paint0_radial_64_1304" cx="0" cy="0" r="1" gradientUnits="userSpaceOnUse" gradientTransform="translate(9.23047 6.27106) rotate(90) scale(9.5)">
                <stop offset="0.151042" stop-color="#196C6A"/>
                <stop offset="1" stop-color="#114B4A"/>
            </radialGradient>
        </defs>
    </symbol>
    <symbol id="bolt-up-right" viewBox="0 0 22 22" fill="none">
        <g filter="url(#filter0_di_64_1310)">
            <circle cx="8.73047" cy="9.27106" r="6.5" fill="url(#paint0_radial_64_1310)"/>
        </g>
        <path d="M5.96094 11.5657L11.4995 6.97635M5.96094 6.97635L11.4995 11.5657" stroke="#114944"/>
        <defs>
            <filter id="filter0_di_64_1310" x="0.230469" y="0.771057" width="21" height="21" filterUnits="userSpaceOnUse" color-interpolation-filters="sRGB">
                <feFlood flood-opacity="0" result="BackgroundImageFix"/>
                <feColorMatrix in="SourceAlpha" type="matrix" values="0 0 0 0 0 0 0 0 0 0 0 0 0 0 0 0 0 0 127 0" result="hardAlpha"/>
                <feOffset dx="2" dy="2"/>
                <feGaussianBlur stdDeviation="2"/>
                <feComposite in2="hardAlpha" operator="out"/>
                <feColorMatrix type="matrix" values="0 0 0 0 0.0525 0 0 0 0 0.2625 0 0 0 0 0.255726 0 0 0 1 0"/>
                <feBlend mode="normal" in2="BackgroundImageFix" result="effect1_dropShadow_64_1310"/>
                <feBlend mode="normal" in="SourceGraphic" in2="effect1_dropShadow_64_1310" result="shape"/>
                <feColorMatrix in="SourceAlpha" type="matrix" values="0 0 0 0 0 0 0 0 0 0 0 0 0 0 0 0 0 0 127 0" result="hardAlpha"/>
                <feOffset dy="1"/>
                <feGaussianBlur stdDeviation="1"/>
                <feComposite in2="hardAlpha" operator="arithmetic" k2="-1" k3="1"/>
                <feColorMatrix type="matrix" values="0 0 0 0 0.12184 0 0 0 0 0.504167 0 0 0 0 0.464752 0 0 0 1 0"/>
                <feBlend mode="normal" in2="shape" result="effect2_innerShadow_64_1310"/>
            </filter>
            <radialGradient id="paint0_radial_64_1310" cx="0" cy="0" r="1" gradientUnits="userSpaceOnUse" gradientTransform="translate(8.73047 6.27106) rotate(90) scale(9.5)">
                <stop offset="0.151042" stop-color="#217D7A"/>
                <stop offset="1" stop-color="#114B4A"/>
            </radialGradient>
        </defs>
    </symbol>
    <symbol id="bolt-bottom-left" viewBox="0 0 22 22" fill="none">
        <g filter="url(#filter0_di_64_1307)">
            <circle cx="9.23047" cy="9.43109" r="6.5" fill="url(#paint0_radial_64_1307)"/>
        </g>
        <path d="M6.46094 11.7258L11.9995 7.13638M6.46094 7.13638L11.9995 11.7258" stroke="#093430"/>
        <defs>
            <filter id="filter0_di_64_1307" x="0.730469" y="0.931091" width="21" height="21" filterUnits="userSpaceOnUse" color-interpolation-filters="sRGB">
                <feFlood flood-opacity="0" result="BackgroundImageFix"/>
                <feColorMatrix in="SourceAlpha" type="matrix" values="0 0 0 0 0 0 0 0 0 0 0 0 0 0 0 0 0 0 127 0" result="hardAlpha"/>
                <feOffset dx="2" dy="2"/>
                <feGaussianBlur stdDeviation="2"/>
                <feComposite in2="hardAlpha" operator="out"/>
                <feColorMatrix type="matrix" values="0 0 0 0 0.0359028 0 0 0 0 0.177018 0 0 0 0 0.195833 0 0 0 1 0"/>
                <feBlend mode="normal" in2="BackgroundImageFix" result="effect1_dropShadow_64_1307"/>
                <feBlend mode="normal" in="SourceGraphic" in2="effect1_dropShadow_64_1307" result="shape"/>
                <feColorMatrix in="SourceAlpha" type="matrix" values="0 0 0 0 0 0 0 0 0 0 0 0 0 0 0 0 0 0 127 0" result="hardAlpha"/>
                <feOffset dy="1"/>
                <feGaussianBlur stdDeviation="1"/>
                <feComposite in2="hardAlpha" operator="arithmetic" k2="-1" k3="1"/>
                <feColorMatrix type="matrix" values="0 0 0 0 0.088125 0 0 0 0 0.391667 0 0 0 0 0.360374 0 0 0 1 0"/>
                <feBlend mode="normal" in2="shape" result="effect2_innerShadow_64_1307"/>
            </filter>
            <radialGradient id="paint0_radial_64_1307" cx="0" cy="0" r="1" gradientUnits="userSpaceOnUse" gradientTransform="translate(9.23047 6.43109) rotate(90) scale(9.5)">
                <stop offset="0.151042" stop-color="#164C51"/>
                <stop offset="1" stop-color="#0D3A40"/>
            </radialGradient>
        </defs>
    </symbol>
    <symbol id="bolt-bottom-right" viewBox="0 0 22 22" fill="none">
        <g filter="url(#filter0_di_64_1313)">
            <circle cx="8.73047" cy="9.43109" r="6.5" fill="url(#paint0_radial_64_1313)"/>
        </g>
        <path d="M5.96094 11.7258L11.4995 7.13638M5.96094 7.13638L11.4995 11.7258" stroke="#163355"/>
        <defs>
            <filter id="filter0_di_64_1313" x="0.230469" y="0.931091" width="21" height="21" filterUnits="userSpaceOnUse" color-interpolation-filters="sRGB">
                <feFlood flood-opacity="0" result="BackgroundImageFix"/>
                <feColorMatrix in="SourceAlpha" type="matrix" values="0 0 0 0 0 0 0 0 0 0 0 0 0 0 0 0 0 0 127 0" result="hardAlpha"/>
                <feOffset dx="2" dy="2"/>
                <feGaussianBlur stdDeviation="2"/>
                <feComposite in2="hardAlpha" operator="out"/>
                <feColorMatrix type="matrix" values="0 0 0 0 0.0709722 0 0 0 0 0.174244 0 0 0 0 0.304167 0 0 0 1 0"/>
                <feBlend mode="normal" in2="BackgroundImageFix" result="effect1_dropShadow_64_1313"/>
                <feBlend mode="normal" in="SourceGraphic" in2="effect1_dropShadow_64_1313" result="shape"/>
                <feColorMatrix in="SourceAlpha" type="matrix" values="0 0 0 0 0 0 0 0 0 0 0 0 0 0 0 0 0 0 127 0" result="hardAlpha"/>
                <feOffset dy="1"/>
                <feGaussianBlur stdDeviation="1"/>
                <feComposite in2="hardAlpha" operator="arithmetic" k2="-1" k3="1"/>
                <feColorMatrix type="matrix" values="0 0 0 0 0.170868 0 0 0 0 0.343622 0 0 0 0 0.554167 0 0 0 1 0"/>
                <feBlend mode="normal" in2="shape" result="effect2_innerShadow_64_1313"/>
            </filter>
            <radialGradient id="paint0_radial_64_1313" cx="0" cy="0" r="1" gradientUnits="userSpaceOnUse" gradientTransform="translate(8.73047 6.43109) rotate(90) scale(9.5)">
                <stop offset="0.151042" stop-color="#234B7C"/>
                <stop offset="1" stop-color="#122E4F"/>
            </radialGradient>
        </defs>
    </symbol>
    <symbol id="burguer" viewBox="0 0 18 16" fill="none">
        <path d="M0 0H18V2H0V0ZM0 7H18V9H0V7ZM0 14H18V16H0V14Z" fill="#607B96"/>
    </symbol>
    <symbol id="close-menu" viewBox="0 0 16 16" fill="none">
        <path d="M8 6.2225L14.2225 0L16 1.7775L9.7775 8L16 14.2225L14.2225 16L8 9.7775L1.7775 16L0 14.2225L6.2225 8L0 1.7775L1.7775 0L8 6.2225Z" fill="#607B96"/>
    </symbol>
    <symbol id="console" viewBox="0 0 24 24" fill="currentColor">
        <path d="M3 3H21C21.5523 3 22 3.44772 22 4V20C22 20.5523 21.5523 21 21 21H3C2.44772 21 2 20.5523 2 20V4C2 3.44772 2.44772 3 3 3ZM12 15V17H18V15H12ZM8.41421 12L5.58579 14.8284L7 16.2426L11.2426 12L7 7.75736L5.58579 9.17157L8.41421 12Z"></path>
    </symbol>
    <symbol id="school" viewBox="0 0 24 24" fill="currentColor">
        <path d="M12 2 0 9 12 16 22 10.1667V17.5H24V9L12 2ZM3.99902 13.4905V18.0001C5.82344 20.429 8.72812 22.0001 11.9998 22.0001 15.2714 22.0001 18.1761 20.429 20.0005 18.0001L20.0001 13.4913 12.0003 18.1579 3.99902 13.4905Z"></path>
    </symbol>
    <symbol id="folder" viewBox="0 0 24 24" fill="currentColor">
        <path d="M22 8V20C22 20.5523 21.5523 21 21 21H3C2.44772 21 2 20.5523 2 20V7H21C21.5523 7 22 7.44772 22 8ZM12.4142 5H2V4C2 3.44772 2.44772 3 3 3H10.4142L12.4142 5Z"></path>
    </symbol>
    <symbol id="diple" viewBox="0 0 9 14" fill="currentcolor">
        <path d="M5.69658 7.18971L0.746582 2.23971L2.16058 0.82571L8.52458 7.18971L2.16058 13.5537L0.746582 12.1397L5.69658 7.18971Z"/>
    </symbol>
    <symbol id="file" viewBox="0 0 24 24" fill="currentColor">
        <path d="M21 9V20.9925C21 21.5511 20.5552 22 20.0066 22H3.9934C3.44495 22 3 21.556 3 21.0082V2.9918C3 2.45531 3.44694 2 3.99826 2H14V8C14 8.55228 14.4477 9 15 9H21ZM21 7H16V2.00318L21 7ZM8 7V9H11V7H8ZM8 11V13H16V11H8ZM8 15V17H16V15H8Z"></path>
    </symbol>
    <symbol id="badge" viewBox="0 0 24 24" fill="currentColor">
        <path d="M10.007 2.10377C8.60544 1.65006 7.08181 2.28116 6.41156 3.59306L5.60578 5.17023C5.51004 5.35763 5.35763 5.51004 5.17023 5.60578L3.59306 6.41156C2.28116 7.08181 1.65006 8.60544 2.10377 10.007L2.64923 11.692C2.71404 11.8922 2.71404 12.1078 2.64923 12.308L2.10377 13.993C1.65006 15.3946 2.28116 16.9182 3.59306 17.5885L5.17023 18.3942C5.35763 18.49 5.51004 18.6424 5.60578 18.8298L6.41156 20.407C7.08181 21.7189 8.60544 22.35 10.007 21.8963L11.692 21.3508C11.8922 21.286 12.1078 21.286 12.308 21.3508L13.993 21.8963C15.3946 22.35 16.9182 21.7189 17.5885 20.407L18.3942 18.8298C18.49 18.6424 18.6424 18.49 18.8298 18.3942L20.407 17.5885C21.7189 16.9182 22.35 15.3946 21.8963 13.993L21.3508 12.308C21.286 12.1078 21.286 11.8922 21.3508 11.692L21.8963 10.007C22.35 8.60544 21.7189 7.08181 20.407 6.41156L18.8298 5.60578C18.6424 5.51004 18.49 5.35763 18.3942 5.17023L17.5885 3.59306C16.9182 2.28116 15.3946 1.65006 13.993 2.10377L12.308 2.64923C12.1078 2.71403 11.8922 2.71404 11.692 2.64923L10.007 2.10377ZM6.75977 11.7573L8.17399 10.343L11.0024 13.1715L16.6593 7.51465L18.0735 8.92886L11.0024 15.9999L6.75977 11.7573Z"></path>
    </symbol>
    <symbol id="calendar" viewBox="0 0 24 24" fill="currentColor">
        <path d="M2 11H22V20C22 20.5523 21.5523 21 21 21H3C2.44772 21 2 20.5523 2 20V11ZM17 3H21C21.5523 3 22 3.44772 22 4V9H2V4C2 3.44772 2.44772 3 3 3H7V1H9V3H15V1H17V3Z"></path>
    </symbol>
</svg>